<svg width="296" height="172" viewBox="0 0 296 172" fill="none" xmlns="http://www.w3.org/2000/svg">
<path d="M76.6 171.4L69.4 170.5C67 168.9 65.1 166.8 63.7 164.2C62.5 161.8 61.4 159.4 60.4 157H58.9C55.5 157 53.3 157.6 52.3 158.8C51.5 160.2 50.7 161.5 49.9 162.7C49.1 164.1 47.1 164.8 43.9 164.8C41.7 164.8 39.4 164.5 37 163.9C34.6 163.5 32.2 163.3 29.8 163.3C28.4 163.3 27.1 163.5 25.9 163.9C24.9 164.3 23.7 164.5 22.3 164.5C19.3 164.5 16.1 164 12.7 163C9.3 162 6.3 160.4 3.7 158.2C1.3 156 0.1 153.2 0.1 149.8C0.1 145 2 141.2 5.8 138.4C9.8 135.4 13.9 133.6 18.1 133L17.5 133.6C15.3 135 12.7 136.8 9.7 139C6.7 141 5.2 143.6 5.2 146.8C5.2 149.6 6.9 151.8 10.3 153.4C13.9 155 16.9 155.8 19.3 155.8L20.8 155.2C23.2 155.8 26 156.1 29.2 156.1C34 156.1 39 155.7 44.2 154.9C49.6 154.1 54.1 153.3 57.7 152.5V150.4C55.9 147.8 55 145.3 55 142.9L58.3 134.8L56.2 131.8L58.9 126.7V125.8L56.5 125.5L55 126.7V126.4L56.2 124.6C55.6 122 56 119.1 57.4 115.9C59 112.7 60.6 109.5 62.2 106.3C64 102.9 64.9 99.9 64.9 97.3C66.5 95.9 68.3 93.2 70.3 89.2C72.5 85 74.6 80.7 76.6 76.3C78.6 71.9 80.2 68.6 81.4 66.4C85.2 58.8 89.5 51.5 94.3 44.5C99.1 37.3 104.2 30.3 109.6 23.5C107.6 24.1 105.6 24.7 103.6 25.3C101.8 25.9 99.8 26.2 97.6 26.2C96.2 27.2 93.3 28.3 88.9 29.5C84.5 30.7 79.8 32 74.8 33.4C70 34.6 65.8 35.9 62.2 37.3C58.6 38.5 56.8 39.7 56.8 40.9L57.7 42.4L62.5 39.1L63.7 39.7L65.5 38.2L65.8 39.4C65.8 41.8 65.2 43.9 64 45.7L62.8 43L60.1 44.8L60.7 46.9L58.9 47.5C59.9 48.1 60.7 48.9 61.3 49.9C62.1 50.9 62.8 51.9 63.4 52.9C58.8 53.1 54.4 54.7 50.2 57.7C46.2 60.5 41.9 62.2 37.3 62.8C36.3 64.2 35 65.1 33.4 65.5C31.8 65.9 30.2 66.1 28.6 66.1C27.6 66.1 26.1 65.2 24.1 63.4C22.1 61.4 20.3 59.3 18.7 57.1C17.3 54.7 16.6 53 16.6 52C16.6 49.8 17.9 47.5 20.5 45.1C23.1 42.7 25.1 40.9 26.5 39.7L23.2 45.7C25.6 44.1 29 42.4 33.4 40.6C37.8 38.8 42.3 37.1 46.9 35.5C51.7 33.7 56 32 59.8 30.4C63.6 28.6 66.2 27.1 67.6 25.9C75.4 23.7 83.3 21.7 91.3 19.9C99.5 17.9 107.6 16.5 115.6 15.7C116.6 14.5 118.2 12.7 120.4 10.3C122.8 7.69999 125.2 5.39999 127.6 3.4C130 1.19999 132 0.0999937 133.6 0.0999937C137.2 0.0999937 140.4 0.299991 143.2 0.699986C146 0.899995 148.1 2.9 149.5 6.69999C149.5 8.89999 148.6 10.9 146.8 12.7C145.2 14.3 143.6 15.6 142 16.6L145 17.2C146.6 16.6 147.9 15.6 148.9 14.2L150.7 13.9H151.3C152.5 13.9 153.5 14.2 154.3 14.8C155.3 15.4 156.2 16.1 157 16.9L160.3 15.4C165.3 15.4 171.4 16.7 178.6 19.3C185.8 21.7 192.9 25 199.9 29.2C207.1 33.4 213 38.2 217.6 43.6C222.4 48.8 224.8 54.3 224.8 60.1C224.8 62.7 224.6 65.3 224.2 67.9C223.8 70.3 223.4 72.7 223 75.1L221.2 74.5L219.7 75.7V76.3L222.1 79C220.7 83.4 218.5 87.6 215.5 91.6C212.7 95.4 209.6 98.8 206.2 101.8C203 102.6 199.8 104.7 196.6 108.1C193.4 111.5 190.1 114 186.7 115.6C184.5 118.2 182.2 120 179.8 121C177.4 122 175.1 124.2 172.9 127.6L170.2 124.9L169.6 125.8L169.9 127.6C169.9 129.2 168.4 130 165.4 130C164.6 130 163.8 130 163 130C162.4 129.8 161.9 129.7 161.5 129.7L160 131.2L160.3 133.6C160.1 133.8 159.1 134.5 157.3 135.7C155.7 136.9 154.9 137 154.9 136H154.3C150.9 138 147.8 139.9 145 141.7L142.9 140.2L141.4 142.9C141.2 142.5 140.8 141.9 140.2 141.1C139.6 140.1 138.9 139.5 138.1 139.3L134.8 142.9H134.5L130.9 141.1L127.6 143.5L126.1 142.3L121 144.7L121.3 145H123.4L125.2 146.8V147.1H124.3L119.5 145.9L116.2 147.1L114.4 146.8C116.4 145.2 118.7 143.8 121.3 142.6L119.5 141.7L115.6 144.7L112.9 143.5V144.7C111.1 145.1 109.8 145.9 109 147.1V149.8L107.8 150.1L104.5 148.6C103.5 149 102.5 149.4 101.5 149.8C100.7 150.2 99.9 150.7 99.1 151.3C95.1 151.7 91.2 152.7 87.4 154.3C83.6 156.1 79.6 157 75.4 157L73 155.8L72.7 163.3L74.8 167.8H75.1L76.9 170.5V170.8L76.6 171.4ZM73.3 148C89.3 143.2 104.8 137.4 119.8 130.6C135 123.6 149.9 116.1 164.5 108.1L166 108.4L167.5 108.1L167.2 106.9L168.1 105.7L169.6 106.9L173.2 104.2L172.9 103.6L171.1 103C171.7 101.4 174.2 99.4 178.6 97C183 94.4 187.8 91.4 193 88C198.4 84.4 203.1 80.3 207.1 75.7C211.1 70.9 213.1 65.4 213.1 59.2C213.1 52.4 211.2 46.8 207.4 42.4C203.6 37.8 198.7 34.1 192.7 31.3C186.7 28.5 180.1 26.4 172.9 25C165.9 23.6 159.1 22.6 152.5 22C145.9 21.4 140.2 21.1 135.4 21.1C133.4 23.1 131.9 25.2 130.9 27.4C130.1 29.4 129 31.1 127.6 32.5C126.2 33.9 123.8 34.6 120.4 34.6L118 36.7V39.7C115 41.1 112.8 43.8 111.4 47.8C110 51.6 108.3 54.8 106.3 57.4L105.7 59.8L106.6 60.7L100.9 70.3L100.3 72.7L99.1 71.8C99.1 73 98.3 75.5 96.7 79.3C95.1 82.9 93.2 87 91 91.6C88.8 96 86.8 100.3 85 104.5C83.4 108.7 82.4 111.9 82 114.1C80.6 115.5 79.3 118.6 78.1 123.4C76.9 128 75.9 132.7 75.1 137.5C74.3 142.3 73.7 145.8 73.3 148ZM124.9 141.1C126.5 140.5 128 139.5 129.4 138.1L128.2 137.5C127.4 137.7 126.6 138.1 125.8 138.7C125.2 139.1 124.5 139.5 123.7 139.9L124.9 141.1ZM266.296 168.7L261.796 161.5C261.596 160.3 261.196 159.1 260.596 157.9C260.196 156.7 259.996 155.4 259.996 154C259.996 152 260.096 150.2 260.296 148.6C260.496 146.8 260.696 144.9 260.896 142.9L262.996 138.1L262.696 137.5C263.096 136.7 263.396 135.9 263.596 135.1C263.996 134.1 264.296 133.2 264.496 132.4L263.296 131.5C261.896 131.5 259.896 132.9 257.296 135.7C254.896 138.3 252.096 140.9 248.896 143.5C245.896 146.1 242.396 147.4 238.396 147.4C235.796 147.4 233.396 146.6 231.196 145C228.996 143.4 227.996 141 228.196 137.8L227.896 137.2C230.096 133.2 231.996 129.1 233.596 124.9C235.196 120.7 236.896 116.6 238.696 112.6L236.896 109.3L235.996 109.6L234.496 109L231.496 112L227.296 112.9L227.896 114.4H227.296L224.296 115.3L223.696 116.5H221.896L221.596 118.3C220.596 119.3 219.496 120.4 218.296 121.6C217.096 122.8 215.696 123.5 214.096 123.7L196.096 140.8L195.796 139.9C195.796 138.5 196.296 137.4 197.296 136.6C198.296 135.6 199.196 134.7 199.996 133.9L200.296 133.3L201.196 132.7L201.496 133L202.396 130.9H202.096C202.496 130.5 202.896 130 203.296 129.4C203.896 128.6 204.596 128.2 205.396 128.2H205.996C205.996 128.2 205.996 128 205.996 127.6C207.196 125.8 208.796 124.2 210.796 122.8H211.696L212.596 121.9L212.296 121.3L215.296 120.1C215.096 118.1 216.696 115.9 220.096 113.5C223.496 111.1 227.196 109 231.196 107.2C235.196 105.2 237.996 104.2 239.596 104.2C241.796 104.2 244.396 104.8 247.396 106C250.396 107 251.896 108.9 251.896 111.7C251.896 117.3 250.896 121.8 248.896 125.2C246.896 128.6 245.796 130.8 245.596 131.8L246.496 132.4C248.896 132.4 250.796 131.7 252.196 130.3C253.596 128.7 254.996 127.1 256.396 125.5C257.996 123.9 259.896 123 262.096 122.8C261.896 122.6 261.996 122.5 262.396 122.5C262.796 122.3 262.996 122.4 262.996 122.8C263.796 121.4 265.596 119.2 268.396 116.2C271.196 113 274.096 110 277.096 107.2C280.096 104.4 282.196 103 283.396 103C285.596 103 288.096 103.8 290.896 105.4C293.696 107 295.096 109 295.096 111.4C295.096 112.4 294.296 114.3 292.696 117.1C291.296 119.7 289.596 122.5 287.596 125.5C285.596 128.5 283.596 131.2 281.596 133.6C279.796 135.8 278.396 137.1 277.396 137.5C275.596 140.7 273.096 144.4 269.896 148.6C266.896 152.6 265.396 156.6 265.396 160.6C265.396 162 265.596 163.3 265.996 164.5C266.396 165.7 266.596 166.9 266.596 168.1L266.296 168.7Z" fill="black"/>
</svg>
