<svg width="90" height="80" viewBox="0 0 90 80" fill="none" xmlns="http://www.w3.org/2000/svg">
<path d="M88.1444 40C88.1444 62.0914 69.8665 80 47.3196 80C24.7727 80 6.49487 62.0914 6.49487 40C6.49487 17.9086 24.7727 0 47.3196 0C69.8665 0 88.1444 17.9086 88.1444 40Z" fill="black"/>
<path d="M88.1444 40C88.1444 62.0914 69.8665 80 47.3196 80C24.7727 80 6.49487 62.0914 6.49487 40C6.49487 17.9086 24.7727 0 47.3196 0C69.8665 0 88.1444 17.9086 88.1444 40Z" stroke="white"/>
<path d="M19.8245 48.3643L13.7945 41.4643L22.2245 34.5943H25.6745L17.2145 41.4643L23.2445 48.3643H19.8245ZM38.5051 31.5343C41.4851 31.5343 43.7951 32.2543 45.4351 33.6943C47.0951 35.1343 47.9251 37.1343 47.9251 39.6943C47.9251 40.4943 47.8551 41.2743 47.7151 42.0343C47.3351 44.1743 46.5551 46.0343 45.3751 47.6143C44.2151 49.1743 42.7251 50.3743 40.9051 51.2143C39.1051 52.0343 37.0651 52.4443 34.7851 52.4443H28.2751L31.9951 31.5343H38.5051ZM35.1751 50.3443C37.8551 50.3443 40.0351 49.6143 41.7151 48.1543C43.3951 46.6743 44.4651 44.6343 44.9251 42.0343C45.0451 41.3143 45.1051 40.6343 45.1051 39.9943C45.1051 38.0143 44.5151 36.4843 43.3351 35.4043C42.1551 34.3043 40.4151 33.7543 38.1151 33.7543H34.3351L31.3951 50.3443H35.1751ZM64.6661 24.1843L50.5661 57.5443H47.8661L61.9361 24.1843H64.6661ZM67.4436 34.5943H70.8636L76.8936 41.4643L68.4636 48.3643H65.0136L73.4736 41.4643L67.4436 34.5943Z" fill="white"/>
</svg>
