<svg width="195" height="143" viewBox="0 0 195 143" fill="none" xmlns="http://www.w3.org/2000/svg">
<g clip-path="url(#clip0_361_2)">
<path d="M181.72 142.837V127.346C181.72 127.346 188.901 138.329 181.72 142.837Z" fill="#F1F1F1"/>
<path d="M182.164 142.835L168.591 132.358C168.591 132.358 183.07 135.338 182.164 142.835Z" fill="#F1F1F1"/>
<path d="M68.8249 27.579H68.0665V10.1104C68.0665 7.42893 66.7996 4.85732 64.5445 2.96126C62.2895 1.0652 59.231 1.70394e-06 56.0418 0H12.0247C10.4456 -3.09352e-06 8.88195 0.261506 7.42305 0.769596C5.96415 1.27769 4.63856 2.02241 3.52196 2.96124C2.40537 3.90007 1.51963 5.01463 0.915332 6.24127C0.311033 7.46791 2.67584e-06 8.78262 0 10.1103V105.945C-2.70205e-06 108.626 1.26688 111.198 3.52194 113.094C5.777 114.99 8.83552 116.055 12.0247 116.055H56.0418C59.2309 116.055 62.2894 114.99 64.5445 113.094C66.7996 111.198 68.0665 108.626 68.0665 105.945V40.0134H68.8249V27.579Z" fill="#3F3D56"/>
<path d="M56.527 2.63038H50.7813C51.0455 3.17505 51.1464 3.766 51.075 4.35117C51.0036 4.93634 50.7622 5.49777 50.3719 5.986C49.9817 6.47423 49.4546 6.87428 48.8372 7.1509C48.2198 7.42752 47.5309 7.57222 46.8313 7.57227H21.6144C20.9148 7.57223 20.2259 7.42752 19.6085 7.1509C18.9911 6.87428 18.464 6.47423 18.0738 5.986C17.6835 5.49777 17.4421 4.93634 17.3707 4.35117C17.2993 3.766 17.4002 3.17505 17.6644 2.63037H12.2979C11.1186 2.63037 9.95094 2.82566 8.86144 3.2051C7.77195 3.58454 6.78201 4.14068 5.94815 4.84179C5.11429 5.5429 4.45283 6.37524 4.00155 7.29129C3.55027 8.20733 3.31799 9.18914 3.31799 10.1807V105.874C3.31799 106.866 3.55026 107.848 4.00154 108.764C4.45282 109.68 5.11428 110.512 5.94814 111.213C6.782 111.914 7.77193 112.47 8.86143 112.85C9.95092 113.229 11.1186 113.425 12.2979 113.425H56.527C58.9086 113.425 61.1927 112.629 62.8767 111.213C64.5608 109.797 65.5069 107.877 65.5069 105.874V10.1807C65.5069 9.18916 65.2746 8.20735 64.8233 7.2913C64.3721 6.37526 63.7106 5.54292 62.8767 4.84181C62.0429 4.1407 61.0529 3.58454 59.9635 3.20511C58.874 2.82567 57.7062 2.63038 56.527 2.63038Z" fill="white"/>
<path d="M34.4124 74.0287C46.2913 74.0287 55.9211 65.932 55.9211 55.9442C55.9211 45.9564 46.2913 37.8597 34.4124 37.8597C22.5336 37.8597 12.9038 45.9564 12.9038 55.9442C12.9038 65.932 22.5336 74.0287 34.4124 74.0287Z" fill="#218838"/>
<path d="M40.786 57.18L35.4373 61.8121C35.3209 61.9107 35.1818 61.9884 35.0285 62.0403C34.8752 62.0922 34.711 62.1173 34.5458 62.1141H34.528C34.3625 62.1171 34.1979 62.0919 34.0442 62.04C33.8906 61.9881 33.751 61.9106 33.6339 61.8121L28.2878 57.18C28.27 57.1628 28.2496 57.1478 28.2317 57.1328C28.0184 56.9404 27.9045 56.6847 27.915 56.4217C27.9255 56.1588 28.0596 55.9101 28.2878 55.7301C28.532 55.5372 28.8544 55.4298 29.1895 55.4298C29.5245 55.4298 29.847 55.5372 30.0911 55.7301L33.2596 58.5141V51.3357C33.2744 51.0592 33.4154 50.7981 33.6533 50.6069C33.8912 50.4156 34.2077 50.3088 34.5369 50.3088C34.8661 50.3088 35.1826 50.4156 35.4205 50.6069C35.6584 50.7981 35.7995 51.0592 35.8142 51.3357V58.5141L38.9802 55.7301C39.2248 55.5372 39.5477 55.4298 39.8831 55.4298C40.2185 55.4298 40.5414 55.5372 40.786 55.7301C40.8039 55.7451 40.8217 55.7601 40.8421 55.7772C41.0549 55.9699 41.1684 56.2255 41.1579 56.4883C41.1474 56.7511 41.0137 56.9997 40.786 57.18Z" fill="white"/>
<path d="M150.34 139.903L147.217 139.902L145.732 129.776L150.341 129.776L150.34 139.903Z" fill="#9F616A"/>
<path d="M151.136 142.448L141.068 142.447V142.34C141.068 141.466 141.481 140.628 142.216 140.01C142.951 139.393 143.947 139.045 144.987 139.045L151.136 139.046L151.136 142.448Z" fill="#9F9F9F"/>
<path d="M126.618 139.816L123.601 139.138L125.277 129.032L129.729 130.033L126.618 139.816Z" fill="#9F616A"/>
<path d="M126.605 142.448L116.879 140.261L116.911 140.157C117.18 139.313 117.836 138.593 118.736 138.156C119.636 137.718 120.706 137.599 121.71 137.825L127.651 139.161L126.605 142.448Z" fill="#9F9F9F"/>
<path d="M152.136 83.1493L154.752 85.7041L151.369 137.624H144.144L140.501 97.6736L129.206 138.696L121.694 137.147L128.524 85.0433L152.136 83.1493Z" fill="#2F2E41"/>
<path d="M130.27 49.6288L137.465 46.5948L148.528 46.7584L158.049 50.8546L152.632 73.6006L154.972 85.4604C145.928 87.3996 136.46 87.4651 127.379 85.6513L127.306 85.6369C127.306 85.6369 132.684 69.5932 130.395 64.6972L130.27 49.6288Z" fill="#3F3D56"/>
<path d="M151.084 37.5061C151.076 35.6906 150.211 33.952 148.68 32.6719C147.149 31.3917 145.077 30.6746 142.917 30.678C140.758 30.6813 138.689 31.4049 137.164 32.6898C135.638 33.9747 134.781 35.716 134.781 37.5314C134.781 39.3469 135.638 41.0881 137.164 42.373C138.689 43.6579 140.758 44.3815 142.917 44.3848C145.077 44.3882 147.149 43.6711 148.68 42.391C150.211 41.1108 151.076 39.3722 151.084 37.5568C151.084 37.5399 151.084 37.523 151.084 37.5061Z" fill="#9F616A"/>
<path d="M139.283 33.59C139.705 33.2558 140.261 33.0672 140.841 33.0615C141.711 33.0377 143.016 33.2977 143.572 33.893C144.018 34.3714 144.039 35.0296 144.041 35.6376L144.046 37.3157C144.047 37.8121 144.054 38.3298 144.322 38.772C144.591 39.2143 145.206 39.5502 145.769 39.3995C146.436 39.2206 146.73 38.4748 147.412 38.3407C147.924 38.24 148.45 38.5547 148.674 38.955C148.863 39.3698 148.926 39.8179 148.856 40.2583C148.792 41.137 147.293 41.4855 147.081 42.3476C146.958 42.8463 146.528 43.841 147.081 43.6325C149.628 43.4184 150.746 42.1675 151.912 40.99L154.541 38.3343C154.841 38.0707 155.072 37.7567 155.218 37.4129C155.283 37.1721 155.307 36.9247 155.287 36.6782C155.273 36.0182 155.252 35.3583 155.223 34.6985C155.199 34.1221 155.026 33.3949 154.355 33.2764C154.006 33.2148 153.543 33.3222 153.359 33.0655C153.29 32.9368 153.279 32.7914 153.327 32.6562C153.475 31.9974 153.726 31.3084 153.468 30.6739C153.079 29.717 151.74 29.3244 150.556 29.1439C149.373 28.9633 148.044 28.808 147.302 28.0127C147.103 27.7486 146.887 27.4938 146.656 27.2493C146.315 26.9888 145.896 26.8113 145.445 26.7357C143.976 26.4231 142.424 26.5389 141.043 27.0642C140.471 27.2838 139.896 27.5795 139.268 27.5461C138.616 27.5113 138.059 27.1253 137.415 27.0315C136.375 26.8798 135.38 27.535 134.868 28.3109C134.233 29.2724 134.174 30.5891 135.072 31.3894C135.519 31.7886 136.187 32.0629 136.373 32.5888C136.449 32.8029 136.431 33.0335 136.498 33.2496C136.576 33.4648 136.725 33.657 136.927 33.8042C137.129 33.9513 137.377 34.0474 137.641 34.0813C138.277 34.1684 138.815 33.9235 139.283 33.59Z" fill="#2F2E41"/>
<path d="M129.278 66.2132C129.432 66.5476 129.673 66.8494 129.981 67.0973C130.29 67.3452 130.659 67.5333 131.063 67.6481C131.468 67.763 131.897 67.802 132.321 67.7623C132.745 67.7225 133.154 67.6051 133.518 67.4182L148.126 73.9109L148.6 70.9189L134.405 63.8812C133.991 63.3874 133.376 63.0384 132.676 62.9004C131.977 62.7623 131.241 62.8448 130.609 63.1323C129.977 63.4197 129.493 63.8921 129.247 64.4599C129.002 65.0278 129.013 65.6516 129.278 66.2132Z" fill="#9F616A"/>
<path d="M148.744 66.7305C148.506 67.0283 148.193 67.2786 147.828 67.4638C147.462 67.6489 147.053 67.7644 146.628 67.8021C146.204 67.8399 145.775 67.7989 145.371 67.6821C144.968 67.5653 144.599 67.3755 144.293 67.1261L128.349 70.7742L128.488 66.9754L144.348 63.5118C144.88 63.1061 145.571 62.8787 146.29 62.8727C147.008 62.8667 147.704 63.0825 148.246 63.4793C148.788 63.876 149.138 64.4261 149.23 65.0253C149.322 65.6246 149.149 66.2313 148.744 66.7305Z" fill="#9F616A"/>
<path d="M154.94 51.0184L158.049 50.8546C158.049 50.8546 161.689 54.8925 159.67 59.2743C159.67 59.2743 160.02 75.0143 151.958 74.3677C143.897 73.7212 141.35 73.7212 141.35 73.7212L143.77 68.0461L149.183 66.6409C149.183 66.6409 147.515 60.4531 150.673 57.8785L154.94 51.0184Z" fill="#3F3D56"/>
<path d="M132.493 50.8801L132.053 48.9864C132.053 48.9864 125.574 48.8585 124.293 57.1138C124.293 57.1138 118.466 69.4689 124.177 71.0597C129.888 72.6504 136.171 71.0597 136.171 71.0597L135.698 65.6112L129.413 64.5329C129.413 64.5329 132.66 61.0016 130.892 57.9386L132.493 50.8801Z" fill="#3F3D56"/>
<path d="M194.745 143H97.7037C97.6361 143 97.5713 142.977 97.5236 142.937C97.4758 142.897 97.449 142.843 97.449 142.786C97.449 142.729 97.4758 142.675 97.5236 142.634C97.5713 142.594 97.6361 142.572 97.7037 142.572H194.745C194.813 142.572 194.878 142.594 194.925 142.634C194.973 142.675 195 142.729 195 142.786C195 142.843 194.973 142.897 194.925 142.937C194.878 142.977 194.813 143 194.745 143Z" fill="#CBCBCB"/>
</g>
<defs>
<clipPath id="clip0_361_2">
<rect width="195" height="143" fill="white"/>
</clipPath>
</defs>
</svg>
