<svg width="195" height="143" viewBox="0 0 195 143" fill="none" xmlns="http://www.w3.org/2000/svg">
<g clip-path="url(#clip0_306_4)">
<path d="M162.156 61.6707C162.156 61.6707 157.571 64.0681 158.891 66.7977C160.21 69.5274 178.95 67.294 178.95 67.294C178.95 67.294 177.63 63.5718 175.255 62.8274C172.879 62.0829 162.156 61.6707 162.156 61.6707Z" fill="#218838"/>
<path d="M160.368 62.3099C161.29 61.7468 162.314 61.3486 163.39 61.1354C166.976 60.318 170.732 60.4281 174.258 61.4541L174.193 61.4047C175.695 62.1501 177.014 63.1839 178.064 64.4391L160.368 62.3099Z" fill="#CCCCCC"/>
<path d="M180.671 74.0486C180.607 74.9395 180.544 75.8295 180.481 76.7187C180.394 78.5811 180.178 80.4362 179.834 82.2722C179.512 83.8082 179 85.3319 178.084 86.6396C177.168 87.9449 175.809 89.0243 174.199 89.4213C173.21 89.6441 172.183 89.6652 171.185 89.4834C169.303 88.4784 168.028 89.7638 169.907 91.0715C170.334 91.3678 170.777 91.642 171.235 91.8929L172.087 104.268L156.251 101.042L159.342 84.58C158.869 84.1756 158.436 83.7312 158.049 83.2524C156.278 81.0414 155.668 78.1604 155.784 75.396C155.903 72.6292 156.687 69.9318 157.465 67.2642C157.664 66.5405 157.904 65.8273 158.183 65.1277C158.529 65.2617 158.88 65.3833 159.236 65.485C161.514 66.1352 163.935 66.1873 166.315 66.1848C170.551 66.1823 174.782 66.0268 179.008 65.7183C179.979 67.2213 180.569 68.9144 180.731 70.6663C180.8 71.7936 180.779 72.9241 180.671 74.0486Z" fill="#CCCCCC"/>
<path d="M112.94 107.641L137.32 109.676L137.581 109.699V11.8937C137.494 11.8366 137.407 11.7795 137.32 11.7224C132.239 8.38106 126.743 5.63605 120.953 3.54846L119.707 19.7029L119.594 21.1818L118.361 37.2022L117.981 42.1304L112.985 107.071L112.94 107.641Z" fill="#E6E6E6"/>
<path d="M52.6495 10.0723C52.4753 10.1765 52.3011 10.2807 52.127 10.3899V109.699L52.6495 109.654L76.7652 107.641L76.7204 107.071L71.7241 42.1305L71.344 37.2022L70.1114 21.1818L69.9979 19.7029L68.6915 2.76184C63.0574 4.59797 57.673 7.05169 52.6495 10.0723Z" fill="#E6E6E6"/>
<path d="M52.1269 10.3899C51.7759 10.6033 51.4249 10.8217 51.0791 11.0425V111.053C51.0791 113.552 52.6548 115.647 54.761 116.18C55.1052 116.268 55.4602 116.312 55.8167 116.312H134.152C134.508 116.312 134.862 116.268 135.206 116.18C135.988 115.976 136.698 115.576 137.259 115.024C138.329 113.949 138.913 112.525 138.89 111.053V12.782C138.457 12.4818 138.022 12.184 137.581 11.8937C137.494 11.8366 137.407 11.7795 137.32 11.7224V111.053C137.32 111.375 137.279 111.696 137.198 112.009C136.826 113.485 135.599 114.567 134.152 114.567H55.8167C54.0695 114.567 52.6495 112.991 52.6495 111.053V10.0723C52.4753 10.1765 52.3011 10.2807 52.1269 10.3899Z" fill="#E6E6E6"/>
<path d="M138.105 19.7039H51.8638V21.1826H138.105V19.7039Z" fill="#E6E6E6"/>
<path d="M111.692 0.841224C111.169 0.719632 110.647 0.605483 110.119 0.498779V40.6515H111.692V0.841224Z" fill="#E6E6E6"/>
<path d="M79.8506 0C79.3254 0.0918146 78.8002 0.186108 78.2776 0.287848V40.6515H79.8506V0Z" fill="#E6E6E6"/>
<path d="M34.9556 113.724C34.9552 114.572 35.1281 115.413 35.465 116.2C35.5943 116.505 35.7488 116.801 35.9268 117.083C36.1569 117.452 36.4238 117.8 36.7239 118.121C37.387 118.831 38.2037 119.4 39.1195 119.79C40.0353 120.18 41.029 120.382 42.0343 120.381H145.314C147.192 120.381 148.992 119.68 150.32 118.432C151.647 117.184 152.393 115.491 152.393 113.726C152.393 111.961 151.647 110.268 150.32 109.02C148.992 107.772 147.192 107.071 145.314 107.071H42.0343C40.1579 107.072 38.3589 107.774 37.0319 109.021C35.7048 110.268 34.9581 111.959 34.9556 113.724Z" fill="#E6E6E6"/>
<path d="M51.8637 42.1311L137.581 42.1311V37.2021L51.8637 37.2021V42.1311Z" fill="#E6E6E6"/>
<path d="M98.3921 38.4343H91.0524C91.0524 38.0783 91.127 37.7258 91.2719 37.3969C91.4168 37.068 91.6292 36.7691 91.897 36.5174C92.1647 36.2656 92.4826 36.066 92.8324 35.9297C93.1822 35.7935 93.5572 35.7234 93.9358 35.7234H95.5086C96.2734 35.7234 97.0068 36.009 97.5475 36.5174C98.0883 37.0258 98.3921 37.7153 98.3921 38.4343Z" fill="#E6E6E6"/>
<path d="M0 117.525C2.29287 120.079 4.77285 122.48 7.42183 124.709H187.578C190.227 122.48 192.707 120.079 195 117.525H0Z" fill="#E6E6E6"/>
<path d="M48.8701 93.5019V118.952H67.8338V93.5019C67.8341 93.3189 67.772 93.1406 67.6566 92.9932C67.5411 92.8458 67.3785 92.7371 67.1924 92.6831C67.1048 92.6558 67.0129 92.6424 66.9206 92.6434H49.786C49.6659 92.6431 49.5469 92.6652 49.4358 92.7082C49.3248 92.7513 49.2238 92.8144 49.1388 92.8942C49.0537 92.9739 48.9862 93.0686 48.9401 93.1729C48.894 93.2772 48.8702 93.389 48.8701 93.5019ZM56.2708 102.247C56.2758 101.745 56.4912 101.265 56.8704 100.912C57.2495 100.559 57.7615 100.361 58.2952 100.361C58.8289 100.361 59.341 100.559 59.7201 100.912C60.0992 101.265 60.3146 101.745 60.3196 102.247V105.2C60.3169 105.703 60.1024 106.184 59.723 106.539C59.3437 106.894 58.8303 107.093 58.2952 107.093C57.7601 107.093 57.2468 106.894 56.8674 106.539C56.4881 106.184 56.2736 105.703 56.2708 105.2V102.247Z" fill="#2F2E41"/>
<path d="M48.812 118.138V120.592C48.8124 120.719 48.8662 120.841 48.9615 120.931C49.0569 121.021 49.1862 121.073 49.3214 121.074H67.3824C67.5178 121.073 67.6474 121.022 67.7428 120.932C67.8383 120.842 67.8919 120.719 67.8918 120.592V118.138H48.812Z" fill="#3F3D56"/>
<path d="M19.0376 55.1582V101.626C19.0381 102.219 19.2885 102.786 19.7339 103.205C20.1793 103.624 20.7832 103.859 21.413 103.86H94.6548C95.2846 103.859 95.8886 103.624 96.3339 103.205C96.7793 102.786 97.0297 102.219 97.0302 101.626V55.1582C97.0287 54.5666 96.7779 53.9996 96.3327 53.5815C95.8874 53.1633 95.2841 52.9281 94.6548 52.9274H21.413C20.7837 52.9281 20.1804 53.1633 19.7352 53.5815C19.2899 53.9996 19.0391 54.5666 19.0376 55.1582Z" fill="#3F3D56"/>
<path d="M20.7559 55.7365V101.053C20.7564 101.37 20.8904 101.673 21.1283 101.897C21.3663 102.12 21.6889 102.246 22.0254 102.247H94.0452C94.3817 102.246 94.7043 102.12 94.9422 101.897C95.1802 101.673 95.3141 101.37 95.3147 101.053V55.7365C95.3146 55.4197 95.181 55.1159 94.943 54.8916C94.705 54.6674 94.3821 54.5411 94.0452 54.5404H22.0254C21.6885 54.5411 21.3656 54.6674 21.1276 54.8916C20.8896 55.1159 20.7559 55.4197 20.7559 55.7365Z" fill="#218838"/>
<path d="M35.4412 121.652C35.5145 121.738 35.6077 121.808 35.7137 121.856C35.8198 121.903 35.936 121.928 36.0535 121.927H78.9006C79.0178 121.927 79.1335 121.903 79.2392 121.855C79.345 121.808 79.4382 121.739 79.512 121.653C79.5858 121.567 79.6384 121.468 79.666 121.36C79.6935 121.253 79.6954 121.142 79.6713 121.034L79.0062 118.064C78.9786 117.943 78.9193 117.83 78.8335 117.736C78.7478 117.642 78.6384 117.569 78.5153 117.525C78.4262 117.492 78.3313 117.476 78.2355 117.476H36.716C36.6203 117.476 36.5254 117.492 36.4362 117.525C36.3131 117.569 36.2037 117.642 36.118 117.736C36.0322 117.83 35.9729 117.943 35.9453 118.064L35.2802 121.034C35.2565 121.142 35.2587 121.253 35.2865 121.36C35.3144 121.467 35.3672 121.567 35.4412 121.652Z" fill="#2F2E41"/>
<path d="M76.7403 118.755H77.8023C77.8735 118.755 77.9312 118.701 77.9312 118.634V118.132C77.9312 118.065 77.8735 118.01 77.8023 118.01H76.7403C76.6692 118.01 76.6115 118.065 76.6115 118.132V118.634C76.6115 118.701 76.6692 118.755 76.7403 118.755Z" fill="#3F3D56"/>
<path d="M74.1009 118.755H75.1629C75.2341 118.755 75.2917 118.701 75.2917 118.634V118.132C75.2917 118.065 75.2341 118.01 75.1629 118.01H74.1009C74.0298 118.01 73.9721 118.065 73.9721 118.132V118.634C73.9721 118.701 74.0298 118.755 74.1009 118.755Z" fill="#3F3D56"/>
<path d="M71.4615 118.755H72.5235C72.5947 118.755 72.6523 118.701 72.6523 118.634V118.132C72.6523 118.065 72.5947 118.01 72.5235 118.01H71.4615C71.3904 118.01 71.3327 118.065 71.3327 118.132V118.634C71.3327 118.701 71.3904 118.755 71.4615 118.755Z" fill="#3F3D56"/>
<path d="M68.8224 118.755H69.8843C69.9555 118.755 70.0132 118.701 70.0132 118.634V118.132C70.0132 118.065 69.9555 118.01 69.8843 118.01H68.8224C68.7512 118.01 68.6935 118.065 68.6935 118.132V118.634C68.6935 118.701 68.7512 118.755 68.8224 118.755Z" fill="#3F3D56"/>
<path d="M66.183 118.755H67.2449C67.3161 118.755 67.3738 118.701 67.3738 118.634V118.132C67.3738 118.065 67.3161 118.01 67.2449 118.01H66.183C66.1118 118.01 66.0541 118.065 66.0541 118.132V118.634C66.0541 118.701 66.1118 118.755 66.183 118.755Z" fill="#3F3D56"/>
<path d="M63.5436 118.755H64.6055C64.6767 118.755 64.7344 118.701 64.7344 118.634V118.132C64.7344 118.065 64.6767 118.01 64.6055 118.01H63.5436C63.4724 118.01 63.4147 118.065 63.4147 118.132V118.634C63.4147 118.701 63.4724 118.755 63.5436 118.755Z" fill="#3F3D56"/>
<path d="M60.9041 118.755H61.9661C62.0373 118.755 62.095 118.701 62.095 118.634V118.132C62.095 118.065 62.0373 118.01 61.9661 118.01H60.9041C60.833 118.01 60.7753 118.065 60.7753 118.132V118.634C60.7753 118.701 60.833 118.755 60.9041 118.755Z" fill="#3F3D56"/>
<path d="M58.265 118.755H59.327C59.3981 118.755 59.4558 118.701 59.4558 118.634V118.132C59.4558 118.065 59.3981 118.01 59.327 118.01H58.265C58.1938 118.01 58.1361 118.065 58.1361 118.132V118.634C58.1361 118.701 58.1938 118.755 58.265 118.755Z" fill="#3F3D56"/>
<path d="M55.6256 118.755H56.6876C56.7587 118.755 56.8164 118.701 56.8164 118.634V118.132C56.8164 118.065 56.7587 118.01 56.6876 118.01H55.6256C55.5544 118.01 55.4967 118.065 55.4967 118.132V118.634C55.4967 118.701 55.5544 118.755 55.6256 118.755Z" fill="#3F3D56"/>
<path d="M52.9862 118.755H54.0482C54.1193 118.755 54.177 118.701 54.177 118.634V118.132C54.177 118.065 54.1193 118.01 54.0482 118.01H52.9862C52.915 118.01 52.8573 118.065 52.8573 118.132V118.634C52.8573 118.701 52.915 118.755 52.9862 118.755Z" fill="#3F3D56"/>
<path d="M50.3468 118.755H51.4087C51.4799 118.755 51.5376 118.701 51.5376 118.634V118.132C51.5376 118.065 51.4799 118.01 51.4087 118.01H50.3468C50.2756 118.01 50.2179 118.065 50.2179 118.132V118.634C50.2179 118.701 50.2756 118.755 50.3468 118.755Z" fill="#3F3D56"/>
<path d="M47.7076 118.755H48.7696C48.8407 118.755 48.8984 118.701 48.8984 118.634V118.132C48.8984 118.065 48.8407 118.01 48.7696 118.01H47.7076C47.6365 118.01 47.5788 118.065 47.5788 118.132V118.634C47.5788 118.701 47.6365 118.755 47.7076 118.755Z" fill="#3F3D56"/>
<path d="M45.0682 118.755H46.1302C46.2013 118.755 46.259 118.701 46.259 118.634V118.132C46.259 118.065 46.2013 118.01 46.1302 118.01H45.0682C44.997 118.01 44.9394 118.065 44.9394 118.132V118.634C44.9394 118.701 44.997 118.755 45.0682 118.755Z" fill="#3F3D56"/>
<path d="M42.4288 118.755H43.4908C43.5619 118.755 43.6196 118.701 43.6196 118.634V118.132C43.6196 118.065 43.5619 118.01 43.4908 118.01H42.4288C42.3576 118.01 42.3 118.065 42.3 118.132V118.634C42.3 118.701 42.3576 118.755 42.4288 118.755Z" fill="#3F3D56"/>
<path d="M39.7894 118.755H40.8514C40.9225 118.755 40.9802 118.701 40.9802 118.634V118.132C40.9802 118.065 40.9225 118.01 40.8514 118.01H39.7894C39.7182 118.01 39.6606 118.065 39.6606 118.132V118.634C39.6606 118.701 39.7182 118.755 39.7894 118.755Z" fill="#3F3D56"/>
<path d="M37.1502 118.755H38.2122C38.2834 118.755 38.3411 118.701 38.3411 118.634V118.132C38.3411 118.065 38.2834 118.01 38.2122 118.01H37.1502C37.0791 118.01 37.0214 118.065 37.0214 118.132V118.634C37.0214 118.701 37.0791 118.755 37.1502 118.755Z" fill="#3F3D56"/>
<path d="M76.7716 119.996H77.8335C77.9047 119.996 77.9624 119.941 77.9624 119.874V119.372C77.9624 119.305 77.9047 119.251 77.8335 119.251H76.7716C76.7004 119.251 76.6427 119.305 76.6427 119.372V119.874C76.6427 119.941 76.7004 119.996 76.7716 119.996Z" fill="#3F3D56"/>
<path d="M74.1322 119.996H75.1941C75.2653 119.996 75.323 119.941 75.323 119.874V119.372C75.323 119.305 75.2653 119.251 75.1941 119.251H74.1322C74.061 119.251 74.0033 119.305 74.0033 119.372V119.874C74.0033 119.941 74.061 119.996 74.1322 119.996Z" fill="#3F3D56"/>
<path d="M71.4928 119.996H72.5547C72.6259 119.996 72.6836 119.941 72.6836 119.874V119.372C72.6836 119.305 72.6259 119.251 72.5547 119.251H71.4928C71.4216 119.251 71.3639 119.305 71.3639 119.372V119.874C71.3639 119.941 71.4216 119.996 71.4928 119.996Z" fill="#3F3D56"/>
<path d="M68.8534 119.996H69.9153C69.9865 119.996 70.0442 119.941 70.0442 119.874V119.372C70.0442 119.305 69.9865 119.251 69.9153 119.251H68.8534C68.7822 119.251 68.7245 119.305 68.7245 119.372V119.874C68.7245 119.941 68.7822 119.996 68.8534 119.996Z" fill="#3F3D56"/>
<path d="M66.2142 119.996H67.2762C67.3473 119.996 67.405 119.941 67.405 119.874V119.372C67.405 119.305 67.3473 119.251 67.2762 119.251H66.2142C66.143 119.251 66.0854 119.305 66.0854 119.372V119.874C66.0854 119.941 66.143 119.996 66.2142 119.996Z" fill="#3F3D56"/>
<path d="M63.5748 119.996H64.6368C64.7079 119.996 64.7656 119.941 64.7656 119.874V119.372C64.7656 119.305 64.7079 119.251 64.6368 119.251H63.5748C63.5036 119.251 63.446 119.305 63.446 119.372V119.874C63.446 119.941 63.5036 119.996 63.5748 119.996Z" fill="#3F3D56"/>
<path d="M60.9354 119.996H61.9974C62.0685 119.996 62.1262 119.941 62.1262 119.874V119.372C62.1262 119.305 62.0685 119.251 61.9974 119.251H60.9354C60.8642 119.251 60.8065 119.305 60.8065 119.372V119.874C60.8065 119.941 60.8642 119.996 60.9354 119.996Z" fill="#3F3D56"/>
<path d="M58.296 119.996H59.358C59.4291 119.996 59.4868 119.941 59.4868 119.874V119.372C59.4868 119.305 59.4291 119.251 59.358 119.251H58.296C58.2248 119.251 58.1671 119.305 58.1671 119.372V119.874C58.1671 119.941 58.2248 119.996 58.296 119.996Z" fill="#3F3D56"/>
<path d="M55.6568 119.996H56.7188C56.79 119.996 56.8477 119.941 56.8477 119.874V119.372C56.8477 119.305 56.79 119.251 56.7188 119.251H55.6568C55.5857 119.251 55.528 119.305 55.528 119.372V119.874C55.528 119.941 55.5857 119.996 55.6568 119.996Z" fill="#3F3D56"/>
<path d="M53.0174 119.996H54.0794C54.1506 119.996 54.2083 119.941 54.2083 119.874V119.372C54.2083 119.305 54.1506 119.251 54.0794 119.251H53.0174C52.9463 119.251 52.8886 119.305 52.8886 119.372V119.874C52.8886 119.941 52.9463 119.996 53.0174 119.996Z" fill="#3F3D56"/>
<path d="M50.378 119.996H51.44C51.5112 119.996 51.5688 119.941 51.5688 119.874V119.372C51.5688 119.305 51.5112 119.251 51.44 119.251H50.378C50.3069 119.251 50.2492 119.305 50.2492 119.372V119.874C50.2492 119.941 50.3069 119.996 50.378 119.996Z" fill="#3F3D56"/>
<path d="M47.7386 119.996H48.8006C48.8718 119.996 48.9294 119.941 48.9294 119.874V119.372C48.9294 119.305 48.8718 119.251 48.8006 119.251H47.7386C47.6675 119.251 47.6098 119.305 47.6098 119.372V119.874C47.6098 119.941 47.6675 119.996 47.7386 119.996Z" fill="#3F3D56"/>
<path d="M45.0995 119.996H46.1614C46.2326 119.996 46.2903 119.941 46.2903 119.874V119.372C46.2903 119.305 46.2326 119.251 46.1614 119.251H45.0995C45.0283 119.251 44.9706 119.305 44.9706 119.372V119.874C44.9706 119.941 45.0283 119.996 45.0995 119.996Z" fill="#3F3D56"/>
<path d="M42.4601 119.996H43.522C43.5932 119.996 43.6509 119.941 43.6509 119.874V119.372C43.6509 119.305 43.5932 119.251 43.522 119.251H42.4601C42.3889 119.251 42.3312 119.305 42.3312 119.372V119.874C42.3312 119.941 42.3889 119.996 42.4601 119.996Z" fill="#3F3D56"/>
<path d="M39.8207 119.996H40.8826C40.9538 119.996 41.0115 119.941 41.0115 119.874V119.372C41.0115 119.305 40.9538 119.251 40.8826 119.251H39.8207C39.7495 119.251 39.6918 119.305 39.6918 119.372V119.874C39.6918 119.941 39.7495 119.996 39.8207 119.996Z" fill="#3F3D56"/>
<path d="M37.1812 119.996H38.2432C38.3144 119.996 38.3721 119.941 38.3721 119.874V119.372C38.3721 119.305 38.3144 119.251 38.2432 119.251H37.1812C37.1101 119.251 37.0524 119.305 37.0524 119.372V119.874C37.0524 119.941 37.1101 119.996 37.1812 119.996Z" fill="#3F3D56"/>
<path d="M54.8649 121.484H65.1646C65.2358 121.484 65.2935 121.43 65.2935 121.363V120.861C65.2935 120.794 65.2358 120.74 65.1646 120.74H54.8649C54.7938 120.74 54.7361 120.794 54.7361 120.861V121.363C54.7361 121.43 54.7938 121.484 54.8649 121.484Z" fill="#3F3D56"/>
<path d="M25.6442 60.783H93.0329C93.1029 60.7815 93.1696 60.7543 93.2186 60.7072C93.2676 60.6602 93.295 60.5969 93.295 60.531C93.295 60.4651 93.2676 60.4019 93.2186 60.3548C93.1696 60.3077 93.1029 60.2805 93.0329 60.2791H25.6442C25.5742 60.2805 25.5075 60.3077 25.4585 60.3548C25.4095 60.4019 25.3821 60.4651 25.3821 60.531C25.3821 60.5969 25.4095 60.6602 25.4585 60.7072C25.5075 60.7543 25.5742 60.7815 25.6442 60.783Z" fill="#3F3D56"/>
<path d="M88.4458 58.9926C89.3131 58.9926 90.0163 58.3168 90.0163 57.4831C90.0163 56.6495 89.3131 55.9736 88.4458 55.9736C87.5784 55.9736 86.8752 56.6495 86.8752 57.4831C86.8752 58.3168 87.5784 58.9926 88.4458 58.9926Z" fill="#3F3D56"/>
<path d="M83.0202 58.9926C83.8876 58.9926 84.5908 58.3168 84.5908 57.4831C84.5908 56.6495 83.8876 55.9736 83.0202 55.9736C82.1528 55.9736 81.4497 56.6495 81.4497 57.4831C81.4497 58.3168 82.1528 58.9926 83.0202 58.9926Z" fill="#3F3D56"/>
<path d="M77.5949 58.9926C78.4623 58.9926 79.1655 58.3168 79.1655 57.4831C79.1655 56.6495 78.4623 55.9736 77.5949 55.9736C76.7276 55.9736 76.0244 56.6495 76.0244 57.4831C76.0244 58.3168 76.7276 58.9926 77.5949 58.9926Z" fill="#3F3D56"/>
<path d="M28.6238 56.6224C28.6236 56.6581 28.6309 56.6934 28.6453 56.7265C28.6596 56.7595 28.6808 56.7895 28.7075 56.8149C28.7342 56.8402 28.766 56.8604 28.801 56.8742C28.836 56.888 28.8735 56.8952 28.9115 56.8953H32.7649C32.8411 56.8937 32.9135 56.864 32.9668 56.8128C33.02 56.7616 33.0498 56.6928 33.0498 56.6211C33.0498 56.5495 33.02 56.4807 32.9668 56.4295C32.9135 56.3782 32.8411 56.3486 32.7649 56.3469H28.9115C28.8345 56.3478 28.7611 56.3773 28.7072 56.4289C28.6533 56.4805 28.6233 56.55 28.6238 56.6224Z" fill="#3F3D56"/>
<path d="M28.6238 57.6522C28.6236 57.6878 28.6309 57.7232 28.6453 57.7562C28.6596 57.7893 28.6808 57.8193 28.7075 57.8447C28.7342 57.87 28.766 57.8902 28.801 57.904C28.836 57.9178 28.8735 57.925 28.9115 57.9251H32.7649C32.8411 57.9235 32.9137 57.8939 32.967 57.8427C33.0203 57.7914 33.0502 57.7226 33.0502 57.6509C33.0502 57.5792 33.0203 57.5104 32.967 57.4591C32.9137 57.4079 32.8411 57.3783 32.7649 57.3767H28.9115C28.8345 57.3776 28.7611 57.407 28.7072 57.4587C28.6533 57.5103 28.6233 57.5798 28.6238 57.6522Z" fill="#3F3D56"/>
<path d="M28.6238 58.6795C28.6233 58.7518 28.6533 58.8214 28.7072 58.873C28.7611 58.9246 28.8345 58.954 28.9115 58.9549H32.7649C32.8411 58.9532 32.9135 58.9236 32.9668 58.8724C33.02 58.8211 33.0498 58.7523 33.0498 58.6807C33.0498 58.6091 33.02 58.5403 32.9668 58.489C32.9135 58.4378 32.8411 58.4082 32.7649 58.4065H28.9115C28.8735 58.4066 28.836 58.4138 28.801 58.4276C28.766 58.4414 28.7342 58.4616 28.7075 58.4869C28.6808 58.5123 28.6596 58.5423 28.6453 58.5754C28.6309 58.6084 28.6236 58.6438 28.6238 58.6795Z" fill="#3F3D56"/>
<path d="M29.8147 66.6384H28.43C28.0102 66.6384 27.6699 66.9584 27.6699 67.3531C27.6699 67.7478 28.0102 68.0677 28.43 68.0677H29.8147C30.2345 68.0677 30.5748 67.7478 30.5748 67.3531C30.5748 66.9584 30.2345 66.6384 29.8147 66.6384Z" fill="#E6E6E6"/>
<path d="M45.6506 66.6384H44.266C43.8462 66.6384 43.5059 66.9584 43.5059 67.3531C43.5059 67.7478 43.8462 68.0677 44.266 68.0677H45.6506C46.0704 68.0677 46.4107 67.7478 46.4107 67.3531C46.4107 66.9584 46.0704 66.6384 45.6506 66.6384Z" fill="#E6E6E6"/>
<path d="M50.1374 66.6384H48.7528C48.333 66.6384 47.9927 66.9584 47.9927 67.3531C47.9927 67.7478 48.333 68.0677 48.7528 68.0677H50.1374C50.5572 68.0677 50.8976 67.7478 50.8976 67.3531C50.8976 66.9584 50.5572 66.6384 50.1374 66.6384Z" fill="#E6E6E6"/>
<path d="M41.3432 66.5192H32.7374C32.3176 66.5192 31.9773 66.8391 31.9773 67.2338C31.9773 67.6285 32.3176 67.9485 32.7374 67.9485H41.3432C41.763 67.9485 42.1033 67.6285 42.1033 67.2338C42.1033 66.8391 41.763 66.5192 41.3432 66.5192Z" fill="#E6E6E6"/>
<path d="M62.458 66.5192H53.8522C53.4324 66.5192 53.092 66.8391 53.092 67.2338C53.092 67.6285 53.4324 67.9485 53.8522 67.9485H62.458C62.8778 67.9485 63.2181 67.6285 63.2181 67.2338C63.2181 66.8391 62.8778 66.5192 62.458 66.5192Z" fill="#E6E6E6"/>
<path d="M34.0376 69.8643H32.6529C32.2331 69.8643 31.8928 70.1842 31.8928 70.5789C31.8928 70.9736 32.2331 71.2936 32.6529 71.2936H34.0376C34.4574 71.2936 34.7977 70.9736 34.7977 70.5789C34.7977 70.1842 34.4574 69.8643 34.0376 69.8643Z" fill="#E6E6E6"/>
<path d="M49.8735 69.8643H48.4889C48.0691 69.8643 47.7288 70.1842 47.7288 70.5789C47.7288 70.9736 48.0691 71.2936 48.4889 71.2936H49.8735C50.2933 71.2936 50.6336 70.9736 50.6336 70.5789C50.6336 70.1842 50.2933 69.8643 49.8735 69.8643Z" fill="#E6E6E6"/>
<path d="M54.3606 69.8643H52.9759C52.5561 69.8643 52.2158 70.1842 52.2158 70.5789C52.2158 70.9736 52.5561 71.2936 52.9759 71.2936H54.3606C54.7804 71.2936 55.1207 70.9736 55.1207 70.5789C55.1207 70.1842 54.7804 69.8643 54.3606 69.8643Z" fill="#E6E6E6"/>
<path d="M45.5661 69.7451H36.9603C36.5405 69.7451 36.2002 70.0651 36.2002 70.4598C36.2002 70.8545 36.5405 71.1744 36.9603 71.1744H45.5661C45.9859 71.1744 46.3262 70.8545 46.3262 70.4598C46.3262 70.0651 45.9859 69.7451 45.5661 69.7451Z" fill="#E6E6E6"/>
<path d="M66.6809 69.7451H58.0751C57.6553 69.7451 57.3149 70.0651 57.3149 70.4598C57.3149 70.8545 57.6553 71.1744 58.0751 71.1744H66.6809C67.1007 71.1744 67.441 70.8545 67.441 70.4598C67.441 70.0651 67.1007 69.7451 66.6809 69.7451Z" fill="#E6E6E6"/>
<path d="M38.2605 73.0902H36.8758C36.456 73.0902 36.1157 73.4102 36.1157 73.8049C36.1157 74.1996 36.456 74.5195 36.8758 74.5195H38.2605C38.6803 74.5195 39.0206 74.1996 39.0206 73.8049C39.0206 73.4102 38.6803 73.0902 38.2605 73.0902Z" fill="#E6E6E6"/>
<path d="M54.0964 73.0902H52.7118C52.292 73.0902 51.9517 73.4102 51.9517 73.8049C51.9517 74.1996 52.292 74.5195 52.7118 74.5195H54.0964C54.5162 74.5195 54.8565 74.1996 54.8565 73.8049C54.8565 73.4102 54.5162 73.0902 54.0964 73.0902Z" fill="#E6E6E6"/>
<path d="M58.5835 73.0902H57.1988C56.779 73.0902 56.4387 73.4102 56.4387 73.8049C56.4387 74.1996 56.779 74.5195 57.1988 74.5195H58.5835C59.0033 74.5195 59.3436 74.1996 59.3436 73.8049C59.3436 73.4102 59.0033 73.0902 58.5835 73.0902Z" fill="#E6E6E6"/>
<path d="M49.789 72.9711H41.1832C40.7634 72.9711 40.4231 73.291 40.4231 73.6857C40.4231 74.0804 40.7634 74.4004 41.1832 74.4004H49.789C50.2088 74.4004 50.5491 74.0804 50.5491 73.6857C50.5491 73.291 50.2088 72.9711 49.789 72.9711Z" fill="#E6E6E6"/>
<path d="M70.9037 72.9711H62.298C61.8782 72.9711 61.5378 73.291 61.5378 73.6857C61.5378 74.0804 61.8782 74.4004 62.298 74.4004H70.9037C71.3236 74.4004 71.6639 74.0804 71.6639 73.6857C71.6639 73.291 71.3236 72.9711 70.9037 72.9711Z" fill="#E6E6E6"/>
<path d="M42.4834 76.3162H41.0987C40.6789 76.3162 40.3386 76.6361 40.3386 77.0308C40.3386 77.4255 40.6789 77.7455 41.0987 77.7455H42.4834C42.9032 77.7455 43.2435 77.4255 43.2435 77.0308C43.2435 76.6361 42.9032 76.3162 42.4834 76.3162Z" fill="#E6E6E6"/>
<path d="M58.3196 76.3162H56.9349C56.5151 76.3162 56.1748 76.6361 56.1748 77.0308C56.1748 77.4255 56.5151 77.7455 56.9349 77.7455H58.3196C58.7394 77.7455 59.0797 77.4255 59.0797 77.0308C59.0797 76.6361 58.7394 76.3162 58.3196 76.3162Z" fill="#E6E6E6"/>
<path d="M62.8064 76.3162H61.4217C61.0019 76.3162 60.6616 76.6361 60.6616 77.0308C60.6616 77.4255 61.0019 77.7455 61.4217 77.7455H62.8064C63.2262 77.7455 63.5665 77.4255 63.5665 77.0308C63.5665 76.6361 63.2262 76.3162 62.8064 76.3162Z" fill="#E6E6E6"/>
<path d="M54.0121 76.197H45.4064C44.9866 76.197 44.6462 76.517 44.6462 76.9117C44.6462 77.3064 44.9866 77.6263 45.4064 77.6263H54.0121C54.432 77.6263 54.7723 77.3064 54.7723 76.9117C54.7723 76.517 54.432 76.197 54.0121 76.197Z" fill="#E6E6E6"/>
<path d="M45.6506 89.1438H44.266C43.8462 89.1438 43.5059 89.4638 43.5059 89.8585C43.5059 90.2532 43.8462 90.5731 44.266 90.5731H45.6506C46.0704 90.5731 46.4107 90.2532 46.4107 89.8585C46.4107 89.4638 46.0704 89.1438 45.6506 89.1438Z" fill="#E6E6E6"/>
<path d="M50.1374 89.1438H48.7528C48.333 89.1438 47.9927 89.4638 47.9927 89.8585C47.9927 90.2532 48.333 90.5731 48.7528 90.5731H50.1374C50.5572 90.5731 50.8976 90.2532 50.8976 89.8585C50.8976 89.4638 50.5572 89.1438 50.1374 89.1438Z" fill="#E6E6E6"/>
<path d="M62.458 89.2629H53.8522C53.4324 89.2629 53.092 89.5829 53.092 89.9776C53.092 90.3723 53.4324 90.6922 53.8522 90.6922H62.458C62.8778 90.6922 63.2181 90.3723 63.2181 89.9776C63.2181 89.5829 62.8778 89.2629 62.458 89.2629Z" fill="#E6E6E6"/>
<path d="M29.8147 89.1438H28.43C28.0102 89.1438 27.6699 89.4638 27.6699 89.8585C27.6699 90.2532 28.0102 90.5731 28.43 90.5731H29.8147C30.2345 90.5731 30.5748 90.2532 30.5748 89.8585C30.5748 89.4638 30.2345 89.1438 29.8147 89.1438Z" fill="#E6E6E6"/>
<path d="M41.3432 89.2629H32.7374C32.3176 89.2629 31.9773 89.5829 31.9773 89.9776C31.9773 90.3723 32.3176 90.6922 32.7374 90.6922H41.3432C41.763 90.6922 42.1033 90.3723 42.1033 89.9776C42.1033 89.5829 41.763 89.2629 41.3432 89.2629Z" fill="#E6E6E6"/>
<path d="M34.0376 85.9178H32.6529C32.2331 85.9178 31.8928 86.2378 31.8928 86.6325C31.8928 87.0272 32.2331 87.3472 32.6529 87.3472H34.0376C34.4574 87.3472 34.7977 87.0272 34.7977 86.6325C34.7977 86.2378 34.4574 85.9178 34.0376 85.9178Z" fill="#E6E6E6"/>
<path d="M49.8735 85.9178H48.4889C48.0691 85.9178 47.7288 86.2378 47.7288 86.6325C47.7288 87.0272 48.0691 87.3472 48.4889 87.3472H49.8735C50.2933 87.3472 50.6336 87.0272 50.6336 86.6325C50.6336 86.2378 50.2933 85.9178 49.8735 85.9178Z" fill="#E6E6E6"/>
<path d="M54.3606 85.9178H52.9759C52.5561 85.9178 52.2158 86.2378 52.2158 86.6325C52.2158 87.0272 52.5561 87.3472 52.9759 87.3472H54.3606C54.7804 87.3472 55.1207 87.0272 55.1207 86.6325C55.1207 86.2378 54.7804 85.9178 54.3606 85.9178Z" fill="#E6E6E6"/>
<path d="M45.5661 86.037H36.9603C36.5405 86.037 36.2002 86.357 36.2002 86.7516C36.2002 87.1463 36.5405 87.4663 36.9603 87.4663H45.5661C45.9859 87.4663 46.3262 87.1463 46.3262 86.7516C46.3262 86.357 45.9859 86.037 45.5661 86.037Z" fill="#E6E6E6"/>
<path d="M38.2605 82.6919H36.8758C36.456 82.6919 36.1157 83.0119 36.1157 83.4066C36.1157 83.8012 36.456 84.1212 36.8758 84.1212H38.2605C38.6803 84.1212 39.0206 83.8012 39.0206 83.4066C39.0206 83.0119 38.6803 82.6919 38.2605 82.6919Z" fill="#E6E6E6"/>
<path d="M54.0964 82.6919H52.7118C52.292 82.6919 51.9517 83.0119 51.9517 83.4066C51.9517 83.8012 52.292 84.1212 52.7118 84.1212H54.0964C54.5162 84.1212 54.8565 83.8012 54.8565 83.4066C54.8565 83.0119 54.5162 82.6919 54.0964 82.6919Z" fill="#E6E6E6"/>
<path d="M58.5835 82.6919H57.1988C56.779 82.6919 56.4387 83.0119 56.4387 83.4066C56.4387 83.8012 56.779 84.1212 57.1988 84.1212H58.5835C59.0033 84.1212 59.3436 83.8012 59.3436 83.4066C59.3436 83.0119 59.0033 82.6919 58.5835 82.6919Z" fill="#E6E6E6"/>
<path d="M49.789 82.811H41.1832C40.7634 82.811 40.4231 83.131 40.4231 83.5257C40.4231 83.9204 40.7634 84.2403 41.1832 84.2403H49.789C50.2088 84.2403 50.5491 83.9204 50.5491 83.5257C50.5491 83.131 50.2088 82.811 49.789 82.811Z" fill="#E6E6E6"/>
<path d="M42.4834 79.4659H41.0987C40.6789 79.4659 40.3386 79.7859 40.3386 80.1806C40.3386 80.5753 40.6789 80.8953 41.0987 80.8953H42.4834C42.9032 80.8953 43.2435 80.5753 43.2435 80.1806C43.2435 79.7859 42.9032 79.4659 42.4834 79.4659Z" fill="#E6E6E6"/>
<path d="M58.3196 79.4659H56.9349C56.5151 79.4659 56.1748 79.7859 56.1748 80.1806C56.1748 80.5753 56.5151 80.8953 56.9349 80.8953H58.3196C58.7394 80.8953 59.0797 80.5753 59.0797 80.1806C59.0797 79.7859 58.7394 79.4659 58.3196 79.4659Z" fill="#E6E6E6"/>
<path d="M62.8064 79.4659H61.4217C61.0019 79.4659 60.6616 79.7859 60.6616 80.1806C60.6616 80.5753 61.0019 80.8953 61.4217 80.8953H62.8064C63.2262 80.8953 63.5665 80.5753 63.5665 80.1806C63.5665 79.7859 63.2262 79.4659 62.8064 79.4659Z" fill="#E6E6E6"/>
<path d="M54.0121 79.5851H45.4064C44.9866 79.5851 44.6462 79.905 44.6462 80.2997C44.6462 80.6944 44.9866 81.0144 45.4064 81.0144H54.0121C54.432 81.0144 54.7723 80.6944 54.7723 80.2997C54.7723 79.905 54.432 79.5851 54.0121 79.5851Z" fill="#E6E6E6"/>
<path d="M24.8362 135.747C24.9972 135.824 25.1608 135.9 25.3218 135.975C29.492 137.935 32.8281 139.049 37.3915 140.27C37.7769 136.226 38.149 129.116 38.5106 124.709C38.6056 123.565 38.7007 122.605 38.793 121.927C38.8163 121.567 38.8946 121.212 39.0253 120.873L39.0095 121.927L38.9699 124.709L38.7402 140.618C44.4168 142.03 50.248 142.82 56.1177 142.973C56.4238 142.98 56.7247 142.985 57.0151 142.99C57.118 142.992 57.2183 142.995 57.3186 142.995C57.6485 142.997 57.9758 143 58.3057 143C64.4912 143.004 70.6544 142.302 76.6597 140.908C76.5304 136.905 76.4011 129.875 76.277 124.709C76.2506 123.699 76.2268 122.759 76.2005 121.927C76.1503 120.151 76.0975 118.87 76.0474 118.441C76.0918 118.517 76.1264 118.598 76.1503 118.681C76.3947 119.751 76.5614 120.836 76.6491 121.927C76.7415 122.759 76.8339 123.699 76.9263 124.709C77.4172 130.076 77.9292 137.374 78.4571 140.469C81.5991 139.662 84.6821 138.665 87.6869 137.484C89.2705 136.863 90.8259 136.194 92.3532 135.476C92.0629 133.689 91.7594 131.687 91.4479 129.61C91.2051 127.999 90.9544 126.344 90.6984 124.709C90.3025 122.183 84.4194 104.53 84.0472 103.86C83.7279 103.286 83.4243 102.745 83.1367 102.247C82.4399 101.036 81.8487 100.07 81.4105 99.46C79.5788 96.8477 76.8519 94.9029 73.6825 93.9486L73.6034 93.9288L73.5479 93.9511L68.1505 92.3927L67.3613 92.1644L66.8308 92.0106L64.9621 90.6731L63.946 89.946L62.9932 89.2636L61.1298 87.931L49.5932 88.5985L47.3472 93.6831L42.3166 95.4127L42.2295 95.3755L42.1529 95.3457L42.0738 95.3655C38.9049 96.3207 36.1783 98.2653 34.3458 100.877C34.0977 101.227 33.7968 101.688 33.4563 102.247C33.166 102.721 32.8493 103.262 32.5061 103.86C32.0179 104.711 31.4847 105.671 30.9199 106.711C30.7958 106.939 30.6692 107.172 30.5425 107.408C30.3076 107.845 30.0691 108.291 29.8272 108.746C29.265 109.8 28.6844 110.902 28.1037 112.021C27.5996 112.991 27.0902 114.987 26.5887 117.525C26.1744 119.634 25.7626 122.121 25.3641 124.709C24.8415 128.064 25.3984 132.081 24.9259 135.168C24.8969 135.364 24.8652 135.556 24.8362 135.747Z" fill="#3F3D56"/>
<path opacity="0.2" d="M80.1277 117.514L77.8851 109.377L75.9048 116.399L80.1277 117.514Z" fill="black"/>
<path d="M20.4497 112.212C21.2521 122.605 20.4207 127.181 24.8495 135.749C28.8791 137.603 33.0764 139.116 37.3917 140.27C37.8403 140.389 38.2899 140.505 38.7404 140.618C44.4169 142.03 50.2481 142.82 56.1178 142.973C56.424 142.98 56.7248 142.985 57.0152 142.99C57.1181 142.993 57.2184 142.995 57.3187 142.995C57.6486 142.997 57.9759 143 58.3058 143C64.4914 143.004 70.6545 142.302 76.6598 140.908C77.2616 140.769 77.8607 140.623 78.4572 140.469C81.5992 139.662 84.6823 138.665 87.687 137.484C89.2706 136.863 90.8261 136.194 92.3534 135.476C92.6991 135.312 93.0449 135.149 93.3853 134.98C95.1352 132.086 96.1303 128.568 96.1514 124.339C94.9399 117.054 23.126 105.929 20.4497 112.212Z" fill="#2F2E41"/>
<path opacity="0.2" d="M20.4518 113.992C20.4108 113.349 20.365 112.684 20.3115 111.992C22.9878 105.709 94.8017 116.833 96.0132 124.119C96.0099 124.787 95.9795 125.435 95.9284 126.068C92.9946 118.877 24.7704 108.304 20.4518 113.992Z" fill="black"/>
<path d="M4.17797 117.42C4.29425 117.738 4.51483 118.014 4.80803 118.207C5.10124 118.4 5.45198 118.501 5.8099 118.495L12.802 118.325C13.1625 118.319 13.5111 118.203 13.7957 117.994C14.0802 117.786 14.2854 117.497 14.3806 117.17L15.37 107.222C15.7211 107.372 16.1032 107.446 16.4886 107.438C17.1643 107.422 17.8055 107.154 18.2712 106.693C18.7369 106.233 18.989 105.617 18.972 104.982C18.955 104.346 18.6704 103.743 18.1807 103.305C17.6911 102.867 17.0364 102.629 16.3606 102.645C16.2066 102.645 16.0529 102.66 15.9023 102.69C15.7385 102.523 15.5394 102.391 15.3179 102.301C15.0963 102.211 14.8572 102.166 14.6159 102.168L3.86043 102.429C3.77121 102.432 3.68244 102.443 3.59513 102.46C3.35926 102.501 3.13555 102.59 2.93905 102.719C2.74255 102.849 2.57783 103.016 2.45596 103.21C2.33409 103.405 2.25792 103.621 2.23256 103.846C2.20719 104.07 2.23323 104.297 2.30893 104.511L4.17797 117.42ZM15.5729 106.547L16.277 104.176C16.3571 103.902 16.359 103.614 16.2824 103.339C16.3165 103.339 16.3467 103.324 16.3808 103.324C16.8636 103.314 17.3306 103.485 17.6795 103.799C18.0284 104.113 18.2307 104.544 18.242 104.998C18.2533 105.452 18.0727 105.891 17.7398 106.22C17.4069 106.549 16.9489 106.74 16.4662 106.752C16.1541 106.761 15.8453 106.69 15.5729 106.547Z" fill="#2F2E41"/>
<path d="M3.59497 102.46C3.82411 103.692 6.40035 104.558 9.49809 104.407C12.3467 104.284 14.6758 103.344 15.1025 102.229C14.9446 102.185 14.7804 102.164 14.6157 102.168L3.86027 102.429C3.77105 102.432 3.68229 102.443 3.59497 102.46Z" fill="#3F3D56"/>
<path d="M10.0659 111.954C10.08 111.95 10.0935 111.945 10.1057 111.937L11.6242 111.003C11.6425 110.991 11.6576 110.976 11.6681 110.958C11.6785 110.94 11.684 110.92 11.684 110.899C11.684 110.878 11.6785 110.858 11.6681 110.84C11.6577 110.822 11.6426 110.807 11.6243 110.795L10.046 109.823C10.0315 109.814 10.0153 109.808 9.99821 109.805C9.98116 109.802 9.96362 109.802 9.94661 109.805C9.9296 109.809 9.91345 109.815 9.89908 109.824C9.88472 109.833 9.87242 109.845 9.86289 109.859C9.85337 109.872 9.84681 109.888 9.84359 109.904C9.84037 109.92 9.84056 109.936 9.84413 109.952C9.84771 109.968 9.8546 109.983 9.86442 109.997C9.87425 110.01 9.8868 110.022 9.90137 110.031L11.311 110.899L9.96126 111.73C9.93513 111.746 9.9159 111.77 9.907 111.798C9.8981 111.826 9.9001 111.856 9.91265 111.883C9.92521 111.91 9.94749 111.932 9.97555 111.945C10.0036 111.958 10.0356 111.961 10.0659 111.954Z" fill="#218838"/>
<path d="M7.66753 112.058C7.69302 112.052 7.71599 112.038 7.73352 112.02C7.75104 112.002 7.76231 111.979 7.76589 111.954C7.76946 111.93 7.76518 111.905 7.75358 111.883C7.74199 111.86 7.72361 111.842 7.70081 111.83L6.30115 111.075L7.65398 110.13C7.66788 110.121 7.6796 110.109 7.68849 110.095C7.69738 110.081 7.70326 110.065 7.70578 110.049C7.70831 110.033 7.70744 110.017 7.70322 110.001C7.69899 109.985 7.6915 109.97 7.68117 109.957C7.67084 109.944 7.65788 109.933 7.64301 109.925C7.62815 109.916 7.61168 109.911 7.59455 109.908C7.57742 109.906 7.55996 109.907 7.54316 109.911C7.52637 109.915 7.51057 109.922 7.49667 109.931L5.98205 110.989C5.96445 111.001 5.95037 111.018 5.9411 111.036C5.93183 111.055 5.92765 111.076 5.92894 111.096C5.93023 111.117 5.93695 111.137 5.94848 111.154C5.96002 111.172 5.97602 111.186 5.99503 111.196L7.56947 112.045C7.59917 112.061 7.63434 112.066 7.66753 112.058Z" fill="#218838"/>
<path d="M9.91477 112.772C9.92754 112.769 9.93973 112.765 9.95093 112.758C9.96575 112.75 9.97865 112.739 9.98889 112.725C9.99914 112.712 10.0065 112.697 10.0106 112.681C10.0147 112.666 10.0155 112.649 10.0128 112.633C10.0102 112.617 10.0042 112.602 9.99514 112.588L7.84262 109.26C7.82432 109.232 7.79499 109.212 7.76105 109.205C7.7271 109.197 7.6913 109.202 7.66148 109.219C7.63167 109.236 7.61026 109.264 7.60194 109.296C7.59363 109.328 7.59909 109.361 7.61712 109.39L9.76963 112.717C9.78432 112.739 9.80634 112.757 9.83246 112.767C9.85858 112.777 9.88742 112.779 9.91477 112.772Z" fill="#218838"/>
<path d="M177.102 98.8087H153.612V118.164H177.102V98.8087Z" fill="#E6E6E6"/>
<path d="M180.584 71.7731C180.148 74.1996 180.531 76.6935 181.678 78.9055C182.102 79.7191 182.628 80.6992 182.111 81.4641C181.966 81.6552 181.777 81.8135 181.559 81.9274C181.341 82.0412 181.098 82.1077 180.848 82.122C180.35 82.1468 179.85 82.086 179.375 81.9426" fill="#CCCCCC"/>
<path d="M159.947 64.3163C160.384 64.3163 160.738 64.0386 160.738 63.6959C160.738 63.3533 160.384 63.0756 159.947 63.0756C159.509 63.0756 159.155 63.3533 159.155 63.6959C159.155 64.0386 159.509 64.3163 159.947 64.3163Z" fill="#3F3D56"/>
<path d="M162.85 64.5643C163.287 64.5643 163.642 64.2866 163.642 63.944C163.642 63.6014 163.287 63.3236 162.85 63.3236C162.413 63.3236 162.058 63.6014 162.058 63.944C162.058 64.2866 162.413 64.5643 162.85 64.5643Z" fill="#3F3D56"/>
<path d="M165.753 65.8052C166.19 65.8052 166.545 65.5274 166.545 65.1848C166.545 64.8422 166.19 64.5645 165.753 64.5645C165.316 64.5645 164.961 64.8422 164.961 65.1848C164.961 65.5274 165.316 65.8052 165.753 65.8052Z" fill="#3F3D56"/>
<path d="M169.184 65.0607C169.621 65.0607 169.976 64.7829 169.976 64.4403C169.976 64.0977 169.621 63.8199 169.184 63.8199C168.747 63.8199 168.392 64.0977 168.392 64.4403C168.392 64.7829 168.747 65.0607 169.184 65.0607Z" fill="#3F3D56"/>
<path d="M97.1105 76.8187C100.956 75.815 105.239 76.8907 108.211 79.3547C109.815 80.6934 110.991 82.4242 111.61 84.3545C112.369 86.652 112.495 89.0756 112.574 91.4638C112.662 94.1045 112.738 96.7456 112.82 99.3864C112.898 101.904 112.907 104.434 113.086 106.948C113.236 109.057 113.595 111.247 114.796 113.077C115.909 114.773 117.668 115.918 119.655 116.549C121.67 117.189 123.841 117.338 125.955 117.325C128.414 117.318 130.869 117.135 133.299 116.778C137.915 116.083 142.474 114.31 145.292 110.652C146.59 108.991 147.32 106.998 147.384 104.938C147.443 102.537 146.627 100.212 145.734 97.994C144.864 95.8361 143.923 93.7101 143.373 91.4539C142.862 89.3425 142.618 87.1816 142.647 85.0163C142.694 80.6844 143.799 76.4205 145.875 72.5532C146.926 70.5669 148.259 68.7241 149.838 67.0753C151.466 65.4098 153.482 64.0348 155.879 63.5841C157.049 63.3562 158.26 63.402 159.407 63.7174C159.896 63.8552 160.105 63.1369 159.618 62.9996C157.243 62.331 154.663 62.8394 152.557 63.9998C150.487 65.1408 148.851 66.8524 147.462 68.6673C144.794 72.2255 143.018 76.3056 142.267 80.6014C141.516 84.8972 141.81 89.2971 143.126 93.471C144.535 97.8108 147.6 102.328 146.283 107.025C145.131 111.136 141.139 113.93 137.015 115.192C134.513 115.957 131.889 116.281 129.273 116.449C127.062 116.59 124.821 116.681 122.616 116.413C120.591 116.168 118.508 115.586 116.938 114.308C115.217 112.907 114.43 110.894 114.088 108.828C113.7 106.491 113.757 104.08 113.684 101.722L113.435 93.6711C113.294 89.1241 113.415 84.0848 110.269 80.3172C109.011 78.8492 107.413 77.6702 105.598 76.87C103.782 76.0697 101.796 75.6694 99.7914 75.6993C98.8137 75.7204 97.8425 75.8553 96.9 76.1009C96.802 76.1297 96.7198 76.1933 96.6706 76.278C96.6215 76.3628 96.6093 76.4623 96.6366 76.5554C96.6639 76.6484 96.7286 76.7279 96.817 76.7771C96.9054 76.8262 97.0106 76.8411 97.1105 76.8187Z" fill="#3F3D56"/>
<path d="M40.9011 72.1091C41.4616 75.8587 43.5824 79.2457 46.7975 81.5259C50.0126 83.8061 54.059 84.7931 58.0476 84.2699C62.0363 83.7467 65.6409 81.7562 68.0694 78.7357C70.498 75.7152 71.5518 71.9118 70.9994 68.1612L70.9693 67.9585C70.3266 64.2585 68.1626 60.9443 64.9442 58.7308C61.7259 56.5174 57.711 55.5821 53.7657 56.1267C49.8205 56.6713 46.261 58.6522 43.8552 61.642C41.4494 64.6318 40.3901 68.391 40.9057 72.1085L40.9011 72.1091Z" fill="#FFB6B6"/>
<path d="M54.2961 83.922C53.5105 82.4342 52.7032 80.8367 52.9166 79.1878C53.13 77.5389 54.8436 75.9581 56.5335 76.4426C57.5441 76.7324 58.3104 77.6672 59.3658 77.7118C60.818 77.7732 61.6449 76.2083 62.0922 74.9079L63.9139 69.6119C67.4277 72.2072 62.9776 69.4863 67.3303 68.5362C69.0379 68.1635 70.7618 67.4418 71.7595 66.0866C72.7571 64.7313 72.7436 62.634 71.365 61.6159C70.6891 61.1167 69.7911 60.929 69.1449 60.3961C68.744 60.0655 68.467 59.6224 68.3549 59.1323C68.2427 58.6421 68.3013 58.1311 68.5221 57.6747C68.7429 57.2184 69.114 56.841 69.5806 56.5984C70.0473 56.3558 70.5846 56.2609 71.113 56.3277L66.4767 55.7977L67.8491 53.4453C66.8568 54.1859 65.4724 54.2894 64.2248 54.0822C62.9772 53.8751 61.8012 53.3961 60.5803 53.0781C54.719 51.5512 47.923 54.2595 45.0141 59.2813C43.8724 58.9268 42.6431 58.9069 41.489 59.2241C40.335 59.5414 39.3107 60.1808 38.5519 61.0577C37.3166 62.542 36.9862 64.5187 36.9449 66.403C36.8679 70.1185 37.7425 73.7968 39.4951 77.1276C40.0413 78.1628 40.687 79.1782 41.6154 79.9354C42.5438 80.6926 53.0362 84.8871 54.2472 84.6893" fill="#2F2E41"/>
<path d="M163.906 74.118C163.908 74.7621 163.82 75.4037 163.644 76.0263V76.0288C163.642 76.0412 163.636 76.0536 163.634 76.066C163.101 77.9097 161.828 79.2051 160.342 79.2051C158.864 79.2051 157.597 77.9196 157.056 76.0908C157.019 75.9642 156.988 75.8377 156.959 75.7062C156.922 75.5598 156.893 75.4084 156.869 75.2521C156.848 75.128 156.832 75.0014 156.819 74.8724C156.8 74.6937 156.787 74.5151 156.785 74.329V74.3265C156.779 74.257 156.779 74.1875 156.779 74.118V74.056L156.782 74.0535C156.782 73.739 156.804 73.4248 156.848 73.113C156.866 72.9815 156.888 72.855 156.914 72.7284C156.946 72.5746 156.98 72.4232 157.022 72.2743C157.056 72.1428 157.096 72.0162 157.138 71.8897C157.196 71.7209 157.26 71.5571 157.331 71.4008C157.376 71.2991 157.423 71.1998 157.471 71.103C158.12 69.8474 159.165 69.031 160.342 69.031C161.971 69.031 163.343 70.5919 163.768 72.721C163.774 72.7532 163.781 72.7855 163.784 72.8177V72.8202C163.865 73.2486 163.906 73.6829 163.906 74.118Z" fill="#E6E6E6"/>
<path d="M157.505 71.2122C157.504 71.2577 157.485 71.3013 157.454 71.3357C157.422 71.3701 157.379 71.3931 157.331 71.4008C157.376 71.2991 157.423 71.1998 157.471 71.103C157.493 71.1357 157.505 71.1735 157.505 71.2122Z" fill="#218838"/>
<path d="M160.626 70.9863H158.303C158.19 70.9863 158.098 71.0727 158.098 71.1792C158.098 71.2857 158.19 71.3721 158.303 71.3721H160.626C160.739 71.3721 160.831 71.2857 160.831 71.1792C160.831 71.0727 160.739 70.9863 160.626 70.9863Z" fill="#218838"/>
<path d="M157.434 72.0807C157.434 72.132 157.412 72.1812 157.374 72.2175C157.335 72.2538 157.283 72.2742 157.228 72.2743H157.022C157.057 72.1428 157.096 72.0162 157.138 71.8896H157.228C157.282 71.8896 157.334 71.9096 157.373 71.9454C157.411 71.9812 157.433 72.0298 157.434 72.0807Z" fill="#218838"/>
<path d="M158.44 71.889H158.066C157.953 71.889 157.861 71.9754 157.861 72.0819C157.861 72.1884 157.953 72.2748 158.066 72.2748H158.44C158.553 72.2748 158.645 72.1884 158.645 72.0819C158.645 71.9754 158.553 71.889 158.44 71.889Z" fill="#218838"/>
<path d="M161.765 71.8569H159.443C159.329 71.8569 159.238 71.9433 159.238 72.0498C159.238 72.1563 159.329 72.2427 159.443 72.2427H161.765C161.879 72.2427 161.97 72.1563 161.97 72.0498C161.97 71.9433 161.879 71.8569 161.765 71.8569Z" fill="#218838"/>
<path d="M158.369 72.7596H157.995C157.882 72.7596 157.79 72.846 157.79 72.9525C157.79 73.059 157.882 73.1454 157.995 73.1454H158.369C158.482 73.1454 158.574 73.059 158.574 72.9525C158.574 72.846 158.482 72.7596 158.369 72.7596Z" fill="#218838"/>
<path d="M159.58 72.7596H159.206C159.093 72.7596 159.001 72.846 159.001 72.9525C159.001 73.059 159.093 73.1454 159.206 73.1454H159.58C159.693 73.1454 159.785 73.059 159.785 72.9525C159.785 72.846 159.693 72.7596 159.58 72.7596Z" fill="#218838"/>
<path d="M157.413 72.9195C157.413 72.9708 157.391 73.02 157.352 73.0563C157.314 73.0925 157.261 73.113 157.207 73.113H156.848C156.866 72.9815 156.887 72.855 156.914 72.7284H157.207C157.234 72.7282 157.26 72.7329 157.285 72.7424C157.31 72.7519 157.333 72.7659 157.352 72.7837C157.371 72.8014 157.386 72.8226 157.397 72.8459C157.407 72.8692 157.413 72.8942 157.413 72.9195Z" fill="#218838"/>
<path d="M162.905 72.7275H160.582C160.469 72.7275 160.377 72.8139 160.377 72.9204C160.377 73.0269 160.469 73.1133 160.582 73.1133H162.905C163.018 73.1133 163.11 73.0269 163.11 72.9204C163.11 72.8139 163.018 72.7275 162.905 72.7275Z" fill="#218838"/>
<path d="M157.505 74.19C157.505 74.2153 157.5 74.2403 157.489 74.2636C157.479 74.2869 157.464 74.3081 157.444 74.3258C157.425 74.3436 157.403 74.3576 157.378 74.3671C157.353 74.3766 157.326 74.3813 157.299 74.3811H156.927C156.874 74.3813 156.823 74.3627 156.785 74.329V74.3265C156.779 74.257 156.779 74.1875 156.779 74.1181V74.056L156.782 74.0535C156.801 74.0354 156.823 74.021 156.848 74.0112C156.873 74.0015 156.9 73.9964 156.927 73.9965H157.299C157.354 73.9965 157.406 74.0169 157.445 74.0532C157.483 74.0895 157.505 74.1387 157.505 74.19Z" fill="#CCCCCC"/>
<path d="M160.626 73.964H158.303C158.19 73.964 158.098 74.0503 158.098 74.1569C158.098 74.2634 158.19 74.3497 158.303 74.3497H160.626C160.739 74.3497 160.831 74.2634 160.831 74.1569C160.831 74.0503 160.739 73.964 160.626 73.964Z" fill="#CCCCCC"/>
<path d="M157.434 75.0586C157.434 75.1099 157.412 75.1591 157.373 75.1954C157.335 75.2317 157.283 75.2521 157.228 75.2521H156.869C156.848 75.1281 156.832 75.0015 156.819 74.8725C156.831 74.8684 156.843 74.8667 156.856 74.8675H157.228C157.282 74.8674 157.334 74.8875 157.373 74.9232C157.411 74.959 157.433 75.0077 157.434 75.0586Z" fill="#CCCCCC"/>
<path d="M158.44 74.8668H158.066C157.953 74.8668 157.861 74.9532 157.861 75.0597C157.861 75.1662 157.953 75.2526 158.066 75.2526H158.44C158.553 75.2526 158.645 75.1662 158.645 75.0597C158.645 74.9532 158.553 74.8668 158.44 74.8668Z" fill="#CCCCCC"/>
<path d="M161.765 74.8347H159.443C159.329 74.8347 159.238 74.9211 159.238 75.0276C159.238 75.1341 159.329 75.2205 159.443 75.2205H161.765C161.879 75.2205 161.97 75.1341 161.97 75.0276C161.97 74.9211 161.879 74.8347 161.765 74.8347Z" fill="#CCCCCC"/>
<path d="M158.369 75.7374H157.995C157.882 75.7374 157.79 75.8238 157.79 75.9303C157.79 76.0368 157.882 76.1232 157.995 76.1232H158.369C158.482 76.1232 158.574 76.0368 158.574 75.9303C158.574 75.8238 158.482 75.7374 158.369 75.7374Z" fill="#CCCCCC"/>
<path d="M159.58 75.7374H159.206C159.093 75.7374 159.001 75.8238 159.001 75.9303C159.001 76.0368 159.093 76.1232 159.206 76.1232H159.58C159.693 76.1232 159.785 76.0368 159.785 75.9303C159.785 75.8238 159.693 75.7374 159.58 75.7374Z" fill="#CCCCCC"/>
<path d="M157.413 75.8973C157.413 75.9486 157.391 75.9978 157.352 76.034C157.314 76.0703 157.261 76.0907 157.207 76.0908H157.056C157.019 75.9643 156.988 75.8377 156.959 75.7062H157.207C157.234 75.7059 157.26 75.7107 157.285 75.7202C157.31 75.7297 157.333 75.7437 157.352 75.7615C157.371 75.7792 157.386 75.8003 157.397 75.8237C157.407 75.847 157.413 75.872 157.413 75.8973Z" fill="#CCCCCC"/>
<path d="M162.905 75.7053H160.582C160.469 75.7053 160.377 75.7917 160.377 75.8982C160.377 76.0047 160.469 76.0911 160.582 76.0911H162.905C163.018 76.0911 163.11 76.0047 163.11 75.8982C163.11 75.7917 163.018 75.7053 162.905 75.7053Z" fill="#CCCCCC"/>
</g>
<defs>
<clipPath id="clip0_306_4">
<rect width="195" height="143" fill="white"/>
</clipPath>
</defs>
</svg>
