<svg width="375" height="221" viewBox="0 0 375 221" fill="none" xmlns="http://www.w3.org/2000/svg">
<path d="M52.9602 159.8L0.160157 113L52.9602 66H64.3602L11.5602 113L64.3602 159.8H52.9602ZM133.437 47.6C157.17 47.6 175.437 53.8 188.237 66.2C201.17 78.6 207.637 95.8667 207.637 118C207.637 140.133 201.17 157.333 188.237 169.6C175.437 181.867 157.17 188 133.437 188H94.0367V47.6H133.437ZM133.437 180.4C154.637 180.4 170.77 174.933 181.837 164C192.903 152.933 198.437 137.6 198.437 118C198.437 98.2667 192.903 82.8667 181.837 71.8C170.77 60.7333 154.637 55.2 133.437 55.2H103.037V180.4H133.437ZM290.457 0.599993L235.057 220.2H226.057L281.257 0.599993H290.457ZM310.335 66H321.735L374.535 113L321.735 159.8H310.335L363.135 113L310.335 66Z" fill="#FFCA2C"/>
</svg>
