<svg width="195" height="143" viewBox="0 0 195 143" fill="none" xmlns="http://www.w3.org/2000/svg">
<g clip-path="url(#clip0_102_37)">
<path d="M20.1688 139.394L23.4052 139.394L24.945 126.478L20.1681 126.478L20.1688 139.394Z" fill="#FFB6B6"/>
<path d="M20.0547 142.887L30.0076 142.887V142.757C30.0076 141.694 29.5994 140.674 28.8729 139.923C28.1464 139.171 27.1611 138.749 26.1337 138.749H26.1335L24.3154 137.322L20.9234 138.749L20.0546 138.749L20.0547 142.887Z" fill="#2F2E41"/>
<path d="M25.3954 123.767L27.9434 125.832L36.8541 116.646L33.0935 113.598L25.3954 123.767Z" fill="#FFB6B6"/>
<path d="M23.2234 126.444L31.0587 132.794L31.1364 132.692C31.7699 131.855 32.0562 130.792 31.9323 129.737C31.8084 128.681 31.2844 127.72 30.4756 127.065L30.4755 127.064L29.8948 124.781L26.3739 123.74L25.6899 123.186L23.2234 126.444Z" fill="#2F2E41"/>
<path d="M40.6332 64.9146C40.6332 64.9146 44.9288 69.5235 43.0197 80.2229L44.6225 98.5429L45.0361 99.3909C45.2826 99.8963 45.3687 100.469 45.2821 101.028C45.1954 101.587 44.9405 102.104 44.5536 102.504L44.2129 103.597L43.8947 105.737L32.042 124.173L27.5078 119.235L34.8262 101.951L32.8375 97.5066L28.2237 82.0336L25.0418 110.346L25.6782 134.708H19.588L15.8142 107.548L11.8368 69.3589L13.9057 64.9146H40.6332Z" fill="#2F2E41"/>
<path d="M12.8286 72.834L12.7852 72.771C10.4671 69.4132 13.9536 61.3445 14.4794 60.1749C13.855 59.9652 13.3201 59.5381 12.9659 58.9663C12.6117 58.3944 12.46 57.7132 12.5367 57.0387L12.7634 55.045L12.9996 53.0896L11.3069 51.3382L11.3021 51.2945L10.328 42.4756L8.91164 36.6182C8.37797 34.4039 8.42345 32.0825 9.04341 29.8924C9.66338 27.7022 10.8355 25.7223 12.4394 24.1557L15.7134 23.6178L19.6922 19.6514H26.1086L28.3086 21.8261C32.4155 22.5713 33.1211 22.328 36.6489 26.708L35.0458 40.3254L34.646 42.1987L34.6471 44.7396L35.6638 45.9086C36.03 46.3297 36.2961 46.8335 36.4409 47.3797C36.5857 47.926 36.6052 48.4998 36.4978 49.0552L36.3641 49.7469C37.4127 50.2118 38.4132 58.4741 38.6522 59.6281L39.0093 61.3521C39.3148 61.7691 41.3312 64.5509 41.3312 65.3113C41.3312 65.4255 41.2498 65.5359 41.075 65.6583C39.7008 66.621 34.2222 73.4504 30.8607 72.0587C27.28 70.5773 13.046 72.7995 12.9026 72.8222L12.8286 72.834Z" fill="#3F3D56"/>
<path d="M11.9666 56.9992C11.9666 56.9992 13.6143 47.3646 11.9543 43.7412L5.36914 44.2279L6.37131 57.9728L12.128 73.2339C12.0401 73.7041 12.0741 74.19 12.2264 74.6422C12.3787 75.0945 12.6439 75.497 12.9952 75.8088C13.3464 76.1207 13.7712 76.3309 14.2264 76.418C14.6815 76.5051 15.1508 76.4661 15.5867 76.3049C16.0225 76.1437 16.4094 75.866 16.708 75.5001C17.0066 75.1342 17.2063 74.693 17.2869 74.2214C17.3674 73.7498 17.3259 73.2646 17.1666 72.8149C17.0073 72.3653 16.7358 71.9673 16.3797 71.6613L11.9666 56.9992Z" fill="#FFB6B6"/>
<path d="M5.36918 38.6312L5.77674 34.0393C5.93013 32.311 6.41226 30.6312 7.1954 29.0965C7.97854 27.5617 9.04723 26.2023 10.34 25.0964C11.1432 24.4144 12.1148 23.9784 13.145 23.8377C14.1752 23.697 15.2229 23.8572 16.1697 24.3002C17.4492 24.9097 18.4573 25.9991 18.9901 27.3482C19.523 28.6973 19.5408 30.2054 19.04 31.5676C17.518 35.6975 18.0676 40.0651 15.0998 40.5975L15.4223 42.1846L12.5042 52.0372L4.19324 51.0411L5.36918 38.6312Z" fill="#3F3D56"/>
<path d="M49.2023 52.4327C49.2023 52.4327 44.3788 44.0169 40.8366 42.39L36.151 47.2021L45.5742 56.9461L59.5574 64.6315C59.7872 65.0473 60.1192 65.3927 60.5197 65.6328C60.9202 65.8729 61.3749 65.999 61.8378 65.9985C62.3007 65.9979 62.7552 65.8707 63.1551 65.6296C63.5551 65.3886 63.8863 65.0423 64.1151 64.626C64.3439 64.2097 64.4622 63.7382 64.4579 63.2593C64.4537 62.7805 64.327 62.3113 64.0908 61.8994C63.8546 61.4875 63.5173 61.1477 63.1131 60.9143C62.709 60.6809 62.2523 60.5623 61.7895 60.5706L49.2023 52.4327Z" fill="#FFB6B6"/>
<path d="M32.6235 42.9593L30.0381 39.2031C29.0651 37.7894 28.3718 36.1906 27.9982 34.4987C27.6245 32.8068 27.5779 31.0552 27.8609 29.3445C28.04 28.2855 28.5017 27.2994 29.194 26.4977C29.8863 25.6959 30.7816 25.1105 31.7786 24.8076C33.1328 24.4063 34.5837 24.552 35.838 25.2153C37.0923 25.8785 38.0563 27.0098 38.5353 28.3804C39.9845 32.5382 45.2707 39.3718 43.3564 41.7778L44.6012 42.7635L46.4824 48.3083L39.5539 53.1607L32.6235 42.9593Z" fill="#3F3D56"/>
<path d="M22.4675 17.7353C26.403 17.7353 29.5933 14.4345 29.5933 10.3627C29.5933 6.29094 26.403 2.99011 22.4675 2.99011C18.532 2.99011 15.3417 6.29094 15.3417 10.3627C15.3417 14.4345 18.532 17.7353 22.4675 17.7353Z" fill="#FFB6B6"/>
<path d="M17.2962 15.5592C17.234 15.5028 17.1752 15.4425 17.1145 15.3845C17.1123 15.3905 17.1119 15.3966 17.1096 15.4025L17.2962 15.5592Z" fill="#2F2E41"/>
<path d="M28.3071 2.5772C27.953 1.98752 27.4626 1.49833 26.8801 1.15378C26.482 0.953996 26.0636 0.800632 25.6328 0.696515L24.5051 0.378171C23.9272 0.193184 23.3328 0.0693397 22.7308 0.00854764C21.8949 -0.0341185 21.0637 0.161712 20.328 0.574645C19.5923 0.987578 18.9805 1.60173 18.5593 2.35004C18.2186 2.97529 17.9453 3.75443 17.2877 3.98319C16.7575 4.16765 16.179 3.90746 15.6217 3.95794C15.2952 4.00689 14.9853 4.13843 14.7197 4.34089C14.454 4.54335 14.2407 4.81049 14.0987 5.11862C13.821 5.7387 13.6843 6.41639 13.6991 7.09964C13.6772 8.65085 13.9699 10.1896 14.5581 11.6166C15.1464 13.0436 16.0172 14.3272 17.1144 15.3846C17.2983 14.883 16.9954 14.3415 16.7559 13.8617C16.5136 13.3762 16.3639 12.6993 16.7697 12.3497C17.2213 11.9606 17.9447 12.3379 18.4788 12.0841C18.6496 11.9826 18.7935 11.8389 18.8976 11.6658C19.0017 11.4927 19.0627 11.2956 19.0752 11.0922C19.1269 10.689 19.073 10.2793 19.0974 9.87338C19.1217 9.47105 19.2227 9.07767 19.3947 8.71597C19.5667 8.35426 19.8062 8.03139 20.0995 7.76601C20.3928 7.50062 20.734 7.29798 21.1033 7.16978C21.4727 7.04158 21.863 6.99036 22.2516 7.01908C23.4672 7.10892 24.6469 7.9683 25.8166 7.61476C26.3657 7.44881 26.834 7.02627 27.4019 6.95519C28.0309 6.87647 28.6225 7.24371 29.1565 7.59633C29.3506 6.74379 29.3754 5.85937 29.2293 4.99663C29.0833 4.13389 28.7696 3.3108 28.3071 2.5772Z" fill="#2F2E41"/>
<path d="M53.0107 138.745L51.1975 135.731L50.8353 137.453C50.7718 137.755 50.7083 138.062 50.6495 138.366C50.1344 137.911 49.5864 137.49 49.0503 137.086C47.404 135.85 45.7584 134.612 44.1136 133.373L44.6287 136.463C44.9462 138.366 45.2779 140.308 46.0633 142.047C46.1504 142.245 46.2444 142.439 46.3456 142.629H53.9986C54.0601 142.453 54.1027 142.27 54.1256 142.084C54.1275 142.072 54.1282 142.06 54.1279 142.047C54.2479 140.867 53.6175 139.755 53.0107 138.745Z" fill="#F0F0F0"/>
<path d="M185.675 135.489L182.386 130.021L181.729 133.146C181.614 133.693 181.499 134.249 181.392 134.801C180.458 133.975 179.464 133.212 178.491 132.479C175.505 130.237 172.52 127.992 169.537 125.744L170.471 131.349C171.047 134.801 171.649 138.323 173.073 141.479C173.231 141.836 173.402 142.189 173.585 142.534H187.467C187.579 142.214 187.656 141.882 187.697 141.545C187.701 141.523 187.702 141.501 187.701 141.479C187.919 139.338 186.776 137.321 185.675 135.489Z" fill="#F0F0F0"/>
<path d="M194.72 142.925L0.280077 143C0.205948 143 0.134931 142.969 0.0825896 142.915C0.0302486 142.86 0.000854492 142.787 0.000854492 142.71C0.000854492 142.634 0.0302486 142.56 0.0825896 142.506C0.134931 142.451 0.205948 142.421 0.280077 142.42L194.72 142.346C194.794 142.346 194.865 142.377 194.918 142.431C194.97 142.485 194.999 142.559 194.999 142.635C194.999 142.712 194.97 142.786 194.918 142.84C194.865 142.894 194.794 142.925 194.72 142.925Z" fill="#CACACA"/>
<path d="M61.0067 57.9852V127.827C61.0074 128.717 61.3494 129.571 61.9577 130.2C62.566 130.829 63.3908 131.183 64.251 131.184H164.285C165.145 131.183 165.97 130.829 166.578 130.2C167.187 129.571 167.529 128.717 167.529 127.827V57.9852C167.527 57.0959 167.185 56.2438 166.577 55.6153C165.969 54.9868 165.145 54.6333 164.285 54.6322H64.251C63.3916 54.6333 62.5675 54.9868 61.9594 55.6153C61.3513 56.2438 61.0088 57.0959 61.0067 57.9852Z" fill="#3F3D56"/>
<path d="M63.3535 58.8542V126.966C63.3543 127.441 63.5372 127.897 63.8623 128.233C64.1873 128.569 64.6278 128.759 65.0874 128.76H163.452C163.912 128.759 164.353 128.569 164.678 128.233C165.003 127.897 165.185 127.441 165.186 126.966V58.8542C165.186 58.3781 165.004 57.9214 164.679 57.5844C164.354 57.2474 163.913 57.0576 163.452 57.0565H65.0874C64.6273 57.0576 64.1863 57.2474 63.8612 57.5844C63.5361 57.9214 63.3536 58.3781 63.3535 58.8542Z" fill="white"/>
<path d="M58.9146 141.448C59.0978 141.686 59.3308 141.878 59.5959 142.009C59.861 142.14 60.1514 142.207 60.4453 142.206H167.558C167.851 142.205 168.14 142.138 168.405 142.007C168.669 141.876 168.902 141.687 169.086 141.451C169.271 141.216 169.403 140.941 169.471 140.646C169.54 140.352 169.545 140.045 169.485 139.748L167.822 131.577C167.753 131.244 167.605 130.934 167.39 130.675C167.176 130.416 166.903 130.217 166.595 130.096C166.372 130.005 166.135 129.959 165.895 129.959H62.1015C61.8621 129.959 61.6249 130.005 61.4021 130.096C61.0943 130.217 60.8208 130.416 60.6065 130.675C60.3921 130.934 60.2437 131.244 60.1748 131.577L58.5121 139.748C58.453 140.045 58.4584 140.351 58.528 140.645C58.5976 140.939 58.7297 141.213 58.9146 141.448Z" fill="#2F2E41"/>
<path d="M161.951 133.479H165.02C165.083 133.479 165.135 133.425 165.135 133.36V131.549C165.135 131.484 165.083 131.431 165.02 131.431H161.951C161.887 131.431 161.836 131.484 161.836 131.549V133.36C161.836 133.425 161.887 133.479 161.951 133.479Z" fill="#3F3D56"/>
<path d="M155.352 133.479H158.422C158.485 133.479 158.537 133.425 158.537 133.36V131.549C158.537 131.484 158.485 131.431 158.422 131.431H155.352C155.289 131.431 155.238 131.484 155.238 131.549V133.36C155.238 133.425 155.289 133.479 155.352 133.479Z" fill="#3F3D56"/>
<path d="M148.754 133.479H151.824C151.887 133.479 151.939 133.425 151.939 133.36V131.549C151.939 131.484 151.887 131.431 151.824 131.431H148.754C148.691 131.431 148.64 131.484 148.64 131.549V133.36C148.64 133.425 148.691 133.479 148.754 133.479Z" fill="#3F3D56"/>
<path d="M142.156 133.479H145.226C145.289 133.479 145.341 133.425 145.341 133.36V131.549C145.341 131.484 145.289 131.431 145.226 131.431H142.156C142.093 131.431 142.042 131.484 142.042 131.549V133.36C142.042 133.425 142.093 133.479 142.156 133.479Z" fill="#3F3D56"/>
<path d="M135.558 133.479H138.628C138.691 133.479 138.743 133.425 138.743 133.36V131.549C138.743 131.484 138.691 131.431 138.628 131.431H135.558C135.495 131.431 135.444 131.484 135.444 131.549V133.36C135.444 133.425 135.495 133.479 135.558 133.479Z" fill="#3F3D56"/>
<path d="M128.96 133.479H132.03C132.093 133.479 132.145 133.425 132.145 133.36V131.549C132.145 131.484 132.093 131.431 132.03 131.431H128.96C128.897 131.431 128.846 131.484 128.846 131.549V133.36C128.846 133.425 128.897 133.479 128.96 133.479Z" fill="#3F3D56"/>
<path d="M122.362 133.479H125.432C125.495 133.479 125.546 133.425 125.546 133.36V131.549C125.546 131.484 125.495 131.431 125.432 131.431H122.362C122.299 131.431 122.247 131.484 122.247 131.549V133.36C122.247 133.425 122.299 133.479 122.362 133.479Z" fill="#3F3D56"/>
<path d="M115.764 133.479H118.834C118.897 133.479 118.948 133.425 118.948 133.36V131.549C118.948 131.484 118.897 131.431 118.834 131.431H115.764C115.701 131.431 115.649 131.484 115.649 131.549V133.36C115.649 133.425 115.701 133.479 115.764 133.479Z" fill="#3F3D56"/>
<path d="M109.166 133.479H112.236C112.299 133.479 112.35 133.425 112.35 133.36V131.549C112.35 131.484 112.299 131.431 112.236 131.431H109.166C109.103 131.431 109.051 131.484 109.051 131.549V133.36C109.051 133.425 109.103 133.479 109.166 133.479Z" fill="#3F3D56"/>
<path d="M102.568 133.479H105.637C105.701 133.479 105.752 133.425 105.752 133.36V131.549C105.752 131.484 105.701 131.431 105.637 131.431H102.568C102.505 131.431 102.453 131.484 102.453 131.549V133.36C102.453 133.425 102.505 133.479 102.568 133.479Z" fill="#3F3D56"/>
<path d="M95.9699 133.479H99.0394C99.1028 133.479 99.1542 133.425 99.1542 133.36V131.549C99.1542 131.484 99.1028 131.431 99.0394 131.431H95.9699C95.9065 131.431 95.8551 131.484 95.8551 131.549V133.36C95.8551 133.425 95.9065 133.479 95.9699 133.479Z" fill="#3F3D56"/>
<path d="M89.3719 133.479H92.4413C92.5047 133.479 92.5562 133.425 92.5562 133.36V131.549C92.5562 131.484 92.5047 131.431 92.4413 131.431H89.3719C89.3085 131.431 89.2571 131.484 89.2571 131.549V133.36C89.2571 133.425 89.3085 133.479 89.3719 133.479Z" fill="#3F3D56"/>
<path d="M82.7739 133.479H85.8433C85.9067 133.479 85.9581 133.425 85.9581 133.36V131.549C85.9581 131.484 85.9067 131.431 85.8433 131.431H82.7739C82.7105 131.431 82.6591 131.484 82.6591 131.549V133.36C82.6591 133.425 82.7105 133.479 82.7739 133.479Z" fill="#3F3D56"/>
<path d="M76.1758 133.479H79.2452C79.3086 133.479 79.36 133.425 79.36 133.36V131.549C79.36 131.484 79.3086 131.431 79.2452 131.431H76.1758C76.1124 131.431 76.061 131.484 76.061 131.549V133.36C76.061 133.425 76.1124 133.479 76.1758 133.479Z" fill="#3F3D56"/>
<path d="M69.5778 133.479H72.6471C72.7106 133.479 72.762 133.425 72.762 133.36V131.549C72.762 131.484 72.7106 131.431 72.6471 131.431H69.5778C69.5143 131.431 69.4629 131.484 69.4629 131.549V133.36C69.4629 133.425 69.5143 133.479 69.5778 133.479Z" fill="#3F3D56"/>
<path d="M62.9797 133.479H66.0491C66.1125 133.479 66.1639 133.425 66.1639 133.36V131.549C66.1639 131.484 66.1125 131.431 66.0491 131.431H62.9797C62.9163 131.431 62.8649 131.484 62.8649 131.549V133.36C62.8649 133.425 62.9163 133.479 62.9797 133.479Z" fill="#3F3D56"/>
<path d="M162.028 136.892H165.098C165.161 136.892 165.213 136.839 165.213 136.773V134.963C165.213 134.897 165.161 134.844 165.098 134.844H162.028C161.965 134.844 161.914 134.897 161.914 134.963V136.773C161.914 136.839 161.965 136.892 162.028 136.892Z" fill="#3F3D56"/>
<path d="M155.43 136.892H158.5C158.563 136.892 158.615 136.839 158.615 136.773V134.963C158.615 134.897 158.563 134.844 158.5 134.844H155.43C155.367 134.844 155.316 134.897 155.316 134.963V136.773C155.316 136.839 155.367 136.892 155.43 136.892Z" fill="#3F3D56"/>
<path d="M148.832 136.892H151.902C151.965 136.892 152.017 136.839 152.017 136.773V134.963C152.017 134.897 151.965 134.844 151.902 134.844H148.832C148.769 134.844 148.718 134.897 148.718 134.963V136.773C148.718 136.839 148.769 136.892 148.832 136.892Z" fill="#3F3D56"/>
<path d="M142.234 136.892H145.304C145.367 136.892 145.419 136.839 145.419 136.773V134.963C145.419 134.897 145.367 134.844 145.304 134.844H142.234C142.171 134.844 142.12 134.897 142.12 134.963V136.773C142.12 136.839 142.171 136.892 142.234 136.892Z" fill="#3F3D56"/>
<path d="M135.636 136.892H138.706C138.769 136.892 138.82 136.839 138.82 136.773V134.963C138.82 134.897 138.769 134.844 138.706 134.844H135.636C135.573 134.844 135.521 134.897 135.521 134.963V136.773C135.521 136.839 135.573 136.892 135.636 136.892Z" fill="#3F3D56"/>
<path d="M129.038 136.892H132.108C132.171 136.892 132.222 136.839 132.222 136.773V134.963C132.222 134.897 132.171 134.844 132.108 134.844H129.038C128.975 134.844 128.923 134.897 128.923 134.963V136.773C128.923 136.839 128.975 136.892 129.038 136.892Z" fill="#3F3D56"/>
<path d="M122.44 136.892H125.51C125.573 136.892 125.624 136.839 125.624 136.773V134.963C125.624 134.897 125.573 134.844 125.51 134.844H122.44C122.377 134.844 122.325 134.897 122.325 134.963V136.773C122.325 136.839 122.377 136.892 122.44 136.892Z" fill="#3F3D56"/>
<path d="M115.842 136.892H118.912C118.975 136.892 119.026 136.839 119.026 136.773V134.963C119.026 134.897 118.975 134.844 118.912 134.844H115.842C115.779 134.844 115.727 134.897 115.727 134.963V136.773C115.727 136.839 115.779 136.892 115.842 136.892Z" fill="#3F3D56"/>
<path d="M109.244 136.892H112.313C112.377 136.892 112.428 136.839 112.428 136.773V134.963C112.428 134.897 112.377 134.844 112.313 134.844H109.244C109.181 134.844 109.129 134.897 109.129 134.963V136.773C109.129 136.839 109.181 136.892 109.244 136.892Z" fill="#3F3D56"/>
<path d="M102.646 136.892H105.715C105.779 136.892 105.83 136.839 105.83 136.773V134.963C105.83 134.897 105.779 134.844 105.715 134.844H102.646C102.583 134.844 102.531 134.897 102.531 134.963V136.773C102.531 136.839 102.583 136.892 102.646 136.892Z" fill="#3F3D56"/>
<path d="M96.048 136.892H99.1174C99.1808 136.892 99.2322 136.839 99.2322 136.773V134.963C99.2322 134.897 99.1808 134.844 99.1174 134.844H96.048C95.9846 134.844 95.9332 134.897 95.9332 134.963V136.773C95.9332 136.839 95.9846 136.892 96.048 136.892Z" fill="#3F3D56"/>
<path d="M89.4498 136.892H92.5192C92.5826 136.892 92.634 136.839 92.634 136.773V134.963C92.634 134.897 92.5826 134.844 92.5192 134.844H89.4498C89.3864 134.844 89.335 134.897 89.335 134.963V136.773C89.335 136.839 89.3864 136.892 89.4498 136.892Z" fill="#3F3D56"/>
<path d="M82.8518 136.892H85.9212C85.9846 136.892 86.036 136.839 86.036 136.773V134.963C86.036 134.897 85.9846 134.844 85.9212 134.844H82.8518C82.7884 134.844 82.737 134.897 82.737 134.963V136.773C82.737 136.839 82.7884 136.892 82.8518 136.892Z" fill="#3F3D56"/>
<path d="M76.2538 136.892H79.3232C79.3866 136.892 79.438 136.839 79.438 136.773V134.963C79.438 134.897 79.3866 134.844 79.3232 134.844H76.2538C76.1904 134.844 76.139 134.897 76.139 134.963V136.773C76.139 136.839 76.1904 136.892 76.2538 136.892Z" fill="#3F3D56"/>
<path d="M69.6558 136.892H72.7252C72.7886 136.892 72.84 136.839 72.84 136.773V134.963C72.84 134.897 72.7886 134.844 72.7252 134.844H69.6558C69.5923 134.844 69.5409 134.897 69.5409 134.963V136.773C69.5409 136.839 69.5923 136.892 69.6558 136.892Z" fill="#3F3D56"/>
<path d="M63.0576 136.892H66.127C66.1904 136.892 66.2418 136.839 66.2418 136.773V134.963C66.2418 134.897 66.1904 134.844 66.127 134.844H63.0576C62.9942 134.844 62.9428 134.897 62.9428 134.963V136.773C62.9428 136.839 62.9942 136.892 63.0576 136.892Z" fill="#3F3D56"/>
<path d="M99.9738 140.988H126.136C126.2 140.988 126.251 140.935 126.251 140.869V139.059C126.251 138.993 126.2 138.94 126.136 138.94H99.9738C99.9104 138.94 99.859 138.993 99.859 139.059V140.869C99.859 140.935 99.9104 140.988 99.9738 140.988Z" fill="#3F3D56"/>
<path d="M136.678 98.3155C136.667 104.065 134.578 109.603 130.821 113.839C127.064 118.076 121.911 120.706 116.375 121.211C110.84 121.716 105.321 120.06 100.906 116.569C96.49 113.078 93.4961 108.005 92.5127 102.346C91.5293 96.6865 92.6275 90.8516 95.5914 85.9879C98.5553 81.1242 103.17 77.5835 108.53 76.0619C113.889 74.5403 119.604 75.1479 124.552 77.7653C129.5 80.3826 133.323 84.8204 135.269 90.206C135.318 90.3413 135.365 90.4765 135.411 90.6131V90.6144C135.617 91.2146 135.797 91.826 135.954 92.4485C136.436 94.3642 136.68 96.3359 136.678 98.3155Z" fill="#3F3D56"/>
<path d="M111.818 82.6732C110.811 82.1098 109.693 81.7917 108.549 81.7433C107.405 81.6949 106.266 81.9174 105.218 82.3938C104.295 82.8094 103.323 83.5548 103.015 84.9009C104.26 84.1406 105.872 85.3419 106.193 87.269L106.118 87.2903C105.948 88.6251 106.326 90.0783 107.058 90.9059C107.112 90.5325 107.246 90.1762 107.45 89.8631C107.654 89.55 107.923 89.2878 108.237 89.0956C108.775 88.7301 109.369 88.4646 109.779 87.8364C110.266 87.0916 110.389 86.0031 110.582 85.0102C110.775 84.0172 111.142 82.9499 111.818 82.6732Z" fill="#FFCA2C"/>
<path d="M104.848 94.0316C104.503 94.5674 104.043 94.9036 103.63 95.3222C103.152 95.7713 102.839 96.3767 102.743 97.0366C102.691 97.5029 102.772 97.9768 102.761 98.4483C102.749 98.9197 102.597 99.4504 102.287 99.5676C101.798 99.7505 101.425 98.8102 100.922 98.7445C100.522 98.693 100.162 99.3435 100.278 99.9076C100.394 100.472 100.938 100.722 101.25 100.353C101.533 100.844 101.334 101.734 100.909 101.885C100.865 102.194 100.82 102.502 100.776 102.811C99.703 102.034 98.6187 101.245 97.7062 100.107C96.6913 98.8531 96.0619 97.3137 95.8986 95.6867C95.7803 94.3794 95.9559 92.884 95.3757 91.878C94.9114 91.073 94.1146 90.8952 93.3975 90.9455C93.2668 90.9545 93.1349 90.97 93.0042 90.9867C93.427 89.6726 93.9641 88.4008 94.6088 87.187C94.7547 87.1222 94.8903 87.0349 95.0109 86.9281C95.6782 86.342 95.9745 85.1558 96.5161 84.3353C96.5509 84.2825 96.587 84.2309 96.6244 84.1807C97.1784 83.4324 97.9203 83.0472 98.6374 82.6892C100.225 81.8919 101.858 81.0843 103.534 81.195L103.057 81.2427C102.5 82.8553 101.943 84.468 101.386 86.0806C101.302 86.3279 101.216 86.5756 101.13 86.8238C100.814 87.7408 100.487 88.7172 100.536 89.7437C100.565 90.3517 100.769 91.0009 101.157 91.2095C101.519 91.4027 101.915 91.1657 102.265 90.9313C102.413 90.8334 102.56 90.7355 102.708 90.6363C103.24 90.2821 103.829 89.9189 104.39 90.1559C104.904 90.3723 105.284 91.0949 105.356 91.8742C105.422 92.6317 105.244 93.3905 104.848 94.0316Z" fill="#FFCA2C"/>
<path d="M108.01 105.041C106.457 104.052 104.905 103.063 103.352 102.074L103.379 102.004C102.413 102.384 102.013 104.16 102.172 105.612C102.332 107.063 102.873 108.361 103.146 109.776C103.514 111.712 103.375 113.714 102.743 115.576C104.785 113.206 106.591 110.63 108.136 107.887C108.352 107.541 108.516 107.164 108.624 106.768C108.738 106.346 108.697 105.895 108.51 105.501C108.383 105.307 108.211 105.149 108.01 105.041Z" fill="#FFCA2C"/>
<path d="M101.883 87.048C101.7 87.453 101.672 87.9142 101.804 88.3397C101.957 88.6825 102.235 88.9488 102.577 89.0806L103.435 89.5205C103.72 89.6669 104.028 89.8147 104.319 89.6943C104.67 89.549 104.913 88.9799 104.85 88.4515C104.783 87.8892 104.441 87.5024 104.124 87.173C103.68 86.7121 103.237 86.2512 102.794 85.7903L102.544 86.1069C102.273 86.3797 102.05 86.6979 101.883 87.048Z" fill="#FFCA2C"/>
<path d="M132.08 93.0591C132.466 93.1531 132.851 93.2471 133.237 93.3411C133.17 94.6897 132.524 95.9378 131.658 96.3899C131.297 96.578 130.894 96.6475 130.596 96.9992C130.326 97.3186 130.189 97.8158 130.063 98.2911C129.843 99.1206 129.622 99.9501 129.402 100.78C129.165 101.673 128.862 102.667 128.247 102.989C127.719 103.265 127.115 102.927 126.709 102.359C126.303 101.791 126.055 101.027 125.815 100.282C125.83 101.094 125.465 101.89 124.949 102.172C124.431 102.454 123.801 102.199 123.455 101.569C123.206 101.117 123.103 100.521 122.859 100.062C122.615 99.6036 122.103 99.3408 121.836 99.771C121.661 100.057 121.683 100.495 121.596 100.858C121.552 101.099 121.437 101.32 121.266 101.49C121.095 101.661 120.877 101.771 120.643 101.807C120.427 101.802 120.214 101.752 120.018 101.659C119.822 101.566 119.646 101.433 119.501 101.268C118.739 100.461 118.242 99.4253 118.083 98.3091C117.975 97.7739 117.989 97.2201 118.123 96.6913C118.276 96.1903 118.646 95.8039 119.013 95.8992C119.254 95.3711 118.778 94.6704 118.348 94.7322C117.917 94.7941 117.58 95.2719 117.227 95.639C116.874 96.0061 116.381 96.2727 116.026 95.9082C116.031 95.9776 116.021 96.047 115.998 96.1123C115.975 96.1775 115.939 96.2371 115.892 96.2873C115.846 96.3375 115.79 96.3772 115.728 96.404C115.666 96.4307 115.599 96.4439 115.532 96.4427C115.296 96.3727 115.077 96.2525 114.889 96.0898C114.076 95.5656 113.044 95.9134 112.466 96.9052C112.827 95.3157 113.356 93.4919 114.465 93.1183C114.918 92.9651 115.413 93.0913 115.841 92.8259C116.599 92.3558 116.752 90.5796 116.097 89.8467C116.181 90.5397 116.165 91.3486 115.811 91.8226C115.457 92.2966 114.716 91.9874 114.76 91.2868C114.75 91.3853 114.71 91.478 114.646 91.5517C114.582 91.6253 114.497 91.676 114.403 91.6966C114.31 91.7172 114.212 91.7066 114.125 91.6663C114.037 91.626 113.964 91.558 113.916 91.4722C113.681 91.1013 113.701 90.4946 113.868 90.0515C114.04 89.6502 114.286 89.2879 114.594 88.9851C115.185 88.3294 115.785 87.6661 116.47 87.2539C117.156 86.8418 117.947 86.7027 118.635 87.1123C118.997 87.3286 119.315 87.6893 119.685 87.8799C119.774 87.9368 119.873 87.9747 119.976 87.9913C120.079 88.008 120.184 88.0031 120.285 87.9769C120.386 87.9507 120.481 87.9038 120.564 87.8389C120.647 87.774 120.717 87.6925 120.77 87.5991C121.045 87.0994 120.915 86.3575 121.017 85.7328C121.2 84.6289 122.267 84.1124 122.859 84.8414C122.417 84.7242 121.96 85.2652 121.905 85.9208C121.849 86.5764 122.169 87.2385 122.597 87.4368C123.317 87.7666 124.021 86.9371 124.565 86.1694C125.133 85.3657 125.701 84.5624 126.271 83.7595C126.362 83.6228 126.464 83.4944 126.576 83.3757C126.754 83.1959 126.992 83.0929 127.241 83.0876C127.49 83.0824 127.731 83.1752 127.917 83.3473C128.492 83.8329 128.762 84.8286 129.234 85.5138C129.918 86.5095 130.943 86.7516 131.897 86.9448C132.607 87.0878 133.319 87.2316 134.03 87.3763C134.505 88.2894 134.919 89.2349 135.269 90.2061C133.964 90.8218 132.857 91.812 132.08 93.0591Z" fill="#FFCA2C"/>
<path d="M135.954 92.4485C135.808 92.8933 135.728 93.3585 135.717 93.828C135.107 93.0578 135.01 91.6139 135.411 90.6144C135.616 91.2146 135.797 91.826 135.954 92.4485Z" fill="#FFCA2C"/>
<path d="M134.378 108.557C133.844 109.677 133.224 110.751 132.523 111.768C132.075 111.569 131.593 111.924 131.173 112.256C130.735 112.604 130.209 112.942 129.759 112.626C129.3 112.301 129.152 111.393 129.297 110.673C129.465 110.009 129.757 109.385 130.159 108.839C130.532 108.262 130.932 107.663 131.451 107.439C131.971 107.215 132.64 107.531 132.792 108.297L133.16 108.284C132.954 107.99 133.062 107.382 133.34 107.275C133.659 107.15 133.937 107.605 134.126 108.007C134.211 108.188 134.297 108.371 134.378 108.557Z" fill="#FFCA2C"/>
<path d="M120.265 103.116C119.473 103.168 118.845 102.159 118.428 101.166C118.011 100.174 117.631 99.039 116.916 98.5339C116.508 98.2452 116.042 98.2056 115.599 98.0657C115.348 98.0001 115.116 97.8734 114.921 97.6963C114.727 97.5191 114.576 97.2965 114.481 97.047L113.979 96.837C113.276 97.2005 112.632 97.6753 112.071 98.2443C111.43 98.9491 111.03 99.8525 110.934 100.815C110.838 101.856 111.193 103.016 111.855 103.407C112.378 103.716 112.988 103.521 113.518 103.804C114.18 104.157 114.573 105.183 114.722 106.197C114.871 107.21 114.833 108.263 114.939 109.288C115.046 110.312 115.339 111.379 115.947 111.904C116.707 112.561 117.822 112.015 118.163 110.819C118.33 110.232 118.324 109.57 118.449 108.961C118.67 107.888 119.264 107.092 119.736 106.212C120.207 105.332 120.578 104.137 120.265 103.116Z" fill="#FFCA2C"/>
<path d="M112.438 92.5759C112.512 92.6463 112.581 92.722 112.644 92.8025C112.71 92.9197 112.743 93.0532 112.741 93.1886C112.739 93.324 112.701 93.4563 112.632 93.5711C112.727 93.5655 112.82 93.5394 112.905 93.4946C112.991 93.4498 113.066 93.3872 113.126 93.3108C113.271 93.1405 113.398 92.9551 113.506 92.7578C113.557 92.6902 113.593 92.6122 113.612 92.529C113.631 92.4458 113.633 92.3593 113.618 92.2753C113.58 92.1648 113.492 92.1177 113.43 92.0346C113.344 91.8722 113.285 91.6958 113.256 91.513C113.222 91.3417 113.142 91.1836 113.026 91.0567C112.909 90.9298 112.761 90.8389 112.597 90.7944L112.637 90.8023C112.569 90.8438 112.516 90.9061 112.485 90.9805C112.453 91.0549 112.445 91.1377 112.461 91.2172C112.485 91.378 112.585 91.5114 112.575 91.6754C112.56 91.9111 112.333 92.0217 112.319 92.2574C112.316 92.3757 112.359 92.4901 112.438 92.5759Z" fill="#FFCA2C"/>
<path d="M111.081 88.5702L111.084 88.5695C111.109 88.5465 111.131 88.5216 111.152 88.495L111.081 88.5702Z" fill="#FFCA2C"/>
<path d="M111.318 89.6767C111.414 89.5903 111.484 89.4785 111.522 89.3536C111.56 89.2287 111.564 89.0953 111.533 88.9682C111.476 88.7002 111.272 88.52 111.084 88.5695C111.03 88.6266 110.962 88.6685 110.888 88.6912C110.813 88.7139 110.735 88.7166 110.659 88.6991C110.543 88.6682 110.415 88.5885 110.315 88.679C110.257 88.7466 110.217 88.8281 110.197 88.916C110.16 89.0344 110.123 89.1528 110.085 89.2712C110.068 89.3136 110.063 89.3606 110.072 89.4058C110.079 89.4239 110.091 89.4398 110.106 89.452C110.12 89.4642 110.138 89.4722 110.157 89.4753C110.38 89.5435 110.604 89.6118 110.828 89.68C110.905 89.7167 110.989 89.7354 111.073 89.7349C111.158 89.7343 111.242 89.7144 111.318 89.6767Z" fill="#FFCA2C"/>
<path d="M128.205 104.953C128.101 104.777 127.998 104.602 127.895 104.427C127.793 104.224 127.654 104.044 127.486 103.896C127.449 103.864 127.406 103.84 127.36 103.825C127.314 103.811 127.265 103.806 127.217 103.811C127.169 103.816 127.123 103.83 127.08 103.854C127.038 103.878 127 103.911 126.97 103.95L126.983 104.05C127.26 104.357 127.448 104.738 127.528 105.149C127.551 105.328 127.543 105.514 127.564 105.694C127.566 105.777 127.584 105.859 127.617 105.935C127.65 106.011 127.697 106.08 127.755 106.137C127.918 106.25 128.109 106.084 128.225 105.881C128.329 105.715 128.375 105.518 128.357 105.321C128.331 105.188 128.279 105.063 128.205 104.953Z" fill="#FFCA2C"/>
<path d="M129.827 105.181C129.846 105.017 129.834 104.85 129.789 104.692C129.782 104.477 129.837 104.265 129.947 104.083C130.056 103.911 130.139 103.723 130.193 103.525C130.215 103.435 130.211 103.339 130.181 103.252C130.147 103.172 130.064 103.136 130.016 103.199L130.118 103.267C129.981 103.241 129.84 103.248 129.705 103.287C129.628 103.318 129.56 103.367 129.506 103.43C129.451 103.494 129.412 103.57 129.392 103.652C129.375 103.781 129.348 103.907 129.31 104.031C129.249 104.16 129.132 104.203 129.058 104.316C129.008 104.417 128.982 104.529 128.984 104.642C128.986 104.755 129.015 104.866 129.068 104.964C129.161 105.126 129.309 105.246 129.482 105.301C129.606 105.347 129.77 105.35 129.827 105.181Z" fill="#FFCA2C"/>
<path d="M132.715 106.082C132.76 106.203 132.82 106.317 132.894 106.422C133.032 106.566 133.22 106.478 133.388 106.443C133.54 106.418 133.696 106.436 133.839 106.495C133.982 106.555 134.107 106.653 134.201 106.78C134.136 106.444 133.994 106.129 133.787 105.862C133.58 105.595 133.314 105.383 133.011 105.244C132.618 105.104 132.204 105.037 131.788 105.046L131.717 105.065C131.898 105.611 132.466 105.598 132.715 106.082Z" fill="#FFCA2C"/>
<path d="M120.481 107.197L120.482 107.2L120.503 107.158L120.481 107.197Z" fill="#FFCA2C"/>
<path d="M120.043 108.075C119.948 108.254 119.865 108.441 119.797 108.634C119.707 108.945 119.647 109.266 119.619 109.59C119.597 109.774 119.59 110.009 119.702 110.099C119.734 110.121 119.772 110.13 119.81 110.125C119.849 110.12 119.883 110.1 119.909 110.07C119.971 110.002 120.021 109.924 120.059 109.839C120.278 109.448 120.448 109.03 120.565 108.595C120.688 108.133 120.658 107.643 120.482 107.2C120.336 107.491 120.19 107.783 120.043 108.075Z" fill="#FFCA2C"/>
<path d="M115.816 84.6949C115.885 84.7653 115.973 84.8131 116.069 84.8324C116.164 84.8517 116.263 84.8417 116.353 84.8035C116.54 84.7191 116.711 84.6022 116.859 84.4578C116.982 84.3638 117.086 84.2463 117.166 84.1116C117.21 84.0312 117.238 83.9425 117.249 83.8507C117.26 83.759 117.253 83.6659 117.229 83.5769C117.194 83.4916 117.14 83.4168 117.07 83.3595C117 83.3022 116.917 83.2643 116.829 83.2494C116.58 83.1732 116.332 83.0971 116.084 83.0209L116.263 82.8534C116.079 82.7508 115.874 82.9412 115.759 83.177C115.685 83.3309 115.633 83.4954 115.605 83.6649C115.566 83.8421 115.565 84.026 115.601 84.2039C115.637 84.3818 115.711 84.5493 115.816 84.6949Z" fill="#FFCA2C"/>
<path d="M120.199 83.1726C120.269 83.2524 120.366 83.3017 120.47 83.3104C120.573 83.3191 120.677 83.2867 120.758 83.2196C120.828 83.1651 120.887 83.0959 120.929 83.0165C120.972 82.9371 120.998 82.8493 121.005 82.7589C121.023 82.5568 120.926 82.3322 120.789 82.3148L120.82 82.1256C120.554 82.076 120.227 82.066 120.085 82.3998C120.037 82.5277 120.022 82.6664 120.042 82.802C120.062 82.9376 120.116 83.0654 120.199 83.1726Z" fill="#FFCA2C"/>
<path d="M159.816 69.3869H68.7234C68.6609 69.3855 68.6015 69.3589 68.5579 69.3127C68.5142 69.2665 68.4897 69.2045 68.4897 69.1399C68.4897 69.0753 68.5142 69.0133 68.5579 68.9671C68.6015 68.9209 68.6609 68.8942 68.7234 68.8928H159.816C159.879 68.8942 159.938 68.9209 159.982 68.9671C160.026 69.0133 160.05 69.0753 160.05 69.1399C160.05 69.2045 160.026 69.2665 159.982 69.3127C159.938 69.3589 159.879 69.3855 159.816 69.3869Z" fill="#CACACA"/>
<path d="M73.981 65.928C75.4001 65.928 76.5505 64.7112 76.5505 63.2103C76.5505 61.7093 75.4001 60.4926 73.981 60.4926C72.5619 60.4926 71.4115 61.7093 71.4115 63.2103C71.4115 64.7112 72.5619 65.928 73.981 65.928Z" fill="#3F3D56"/>
<path d="M82.8573 65.928C84.2764 65.928 85.4268 64.7112 85.4268 63.2103C85.4268 61.7093 84.2764 60.4926 82.8573 60.4926C81.4382 60.4926 80.2878 61.7093 80.2878 63.2103C80.2878 64.7112 81.4382 65.928 82.8573 65.928Z" fill="#3F3D56"/>
<path d="M91.7338 65.928C93.1529 65.928 94.3033 64.7112 94.3033 63.2103C94.3033 61.7093 93.1529 60.4926 91.7338 60.4926C90.3147 60.4926 89.1643 61.7093 89.1643 63.2103C89.1643 64.7112 90.3147 65.928 91.7338 65.928Z" fill="#3F3D56"/>
<path d="M154.497 61.1663H148.192C148.067 61.1688 147.948 61.222 147.86 61.3144C147.773 61.4067 147.724 61.5309 147.724 61.6602C147.724 61.7896 147.773 61.9137 147.86 62.0061C147.948 62.0984 148.067 62.1516 148.192 62.1542H154.497C154.622 62.1516 154.741 62.0984 154.829 62.0061C154.916 61.9137 154.965 61.7896 154.965 61.6602C154.965 61.5309 154.916 61.4067 154.829 61.3144C154.741 61.222 154.622 61.1688 154.497 61.1663Z" fill="#3F3D56"/>
<path d="M154.497 63.0204H148.192C148.067 63.023 147.948 63.0761 147.86 63.1685C147.773 63.2608 147.724 63.385 147.724 63.5143C147.724 63.6437 147.773 63.7679 147.86 63.8602C147.948 63.9526 148.067 64.0057 148.192 64.0083H154.497C154.622 64.0057 154.741 63.9526 154.829 63.8602C154.916 63.7679 154.965 63.6437 154.965 63.5143C154.965 63.385 154.916 63.2608 154.829 63.1685C154.741 63.0761 154.622 63.023 154.497 63.0204Z" fill="#3F3D56"/>
<path d="M154.497 64.8722H148.192C148.067 64.8748 147.948 64.9279 147.86 65.0203C147.773 65.1126 147.724 65.2368 147.724 65.3662C147.724 65.4955 147.773 65.6197 147.86 65.712C147.948 65.8044 148.067 65.8575 148.192 65.8601H154.497C154.622 65.8575 154.741 65.8044 154.829 65.712C154.916 65.6197 154.965 65.4955 154.965 65.3662C154.965 65.2368 154.916 65.1126 154.829 65.0203C154.741 64.9279 154.622 64.8748 154.497 64.8722Z" fill="#3F3D56"/>
<g opacity="0.35">
<path d="M162.23 99.4577C163.696 98.7963 160.723 98.4113 157.349 98.2847C153.976 98.1581 149.895 98.1651 147.739 97.8051C145.654 97.4568 145.808 96.8376 145.632 96.2766C145.457 95.7156 144.656 95.1404 141.402 95.0157C137.348 94.8603 130.663 95.4585 127.602 95.0993C124.746 94.7642 126.444 93.713 122.28 93.6728C119.902 93.6498 116.838 93.9964 114.192 94.08C112.316 94.1642 110.437 94.0628 108.58 93.7773C107.291 93.5587 106.392 93.2815 104.941 93.0884C101.13 92.5814 93.6743 92.7518 87.0198 93.4016C80.3652 94.0514 74.6611 95.1162 71.4441 96.1709C68.2272 97.2255 67.3384 98.2639 68.0878 99.1445C68.5663 99.7068 69.7907 100.233 72.761 100.459C78.3167 100.881 88.2081 100.154 93.949 100.538C97.1486 100.752 98.5681 101.284 101.375 101.575C104.391 101.887 108.807 101.903 113.145 101.896C122.177 101.881 131.44 101.785 140.885 101.609C144.831 101.535 148.964 101.439 153.163 101.089C157.361 100.738 161.643 100.062 162.528 99.4282" fill="white"/>
</g>
</g>
<defs>
<clipPath id="clip0_102_37">
<rect width="195" height="143" fill="white"/>
</clipPath>
</defs>
</svg>
